<svg width="112" height="124" viewBox="0 0 112 124" fill="none" xmlns="http://www.w3.org/2000/svg">
<circle cx="56" cy="63.3801" r="55.9" stroke="url(#paint0_linear)" stroke-width="0.2" stroke-linejoin="round"/>
<circle cx="56" cy="63.3801" r="55.9" stroke="url(#paint1_linear)" stroke-width="0.2" stroke-linejoin="round"/>
<path d="M35.31 120.598C34.7313 120.598 34.2973 120.5 34.008 120.304C33.728 120.117 33.5833 119.814 33.574 119.394C33.574 119.301 33.6253 119.254 33.728 119.254C33.784 119.254 33.91 119.277 34.106 119.324C34.3113 119.361 34.6427 119.38 35.1 119.38C36.164 119.38 37.1253 119.235 37.984 118.946C38.852 118.647 39.5333 118.26 40.028 117.784C40.5227 117.308 40.77 116.804 40.77 116.272C40.77 115.619 40.4293 115.18 39.748 114.956C39.0667 114.723 38.1987 114.606 37.144 114.606L36.108 114.62C35.968 115.096 35.842 115.535 35.73 115.936C35.6273 116.337 35.534 116.687 35.45 116.986C35.1793 118.003 34.9927 118.689 34.89 119.044C34.61 119.044 34.3673 118.969 34.162 118.82C33.9567 118.671 33.854 118.489 33.854 118.274C33.854 118.106 33.9007 117.891 33.994 117.63L34.05 117.462L34.232 116.902C35.268 113.673 36.1547 111.344 36.892 109.916C36.4253 110.019 35.9447 110.205 35.45 110.476C35.4033 110.495 35.338 110.527 35.254 110.574C35.17 110.611 35.1093 110.63 35.072 110.63C34.9787 110.63 34.862 110.565 34.722 110.434C34.582 110.294 34.512 110.177 34.512 110.084C35.156 109.823 35.73 109.627 36.234 109.496C36.7473 109.365 37.3493 109.3 38.04 109.3C38.964 109.3 39.7807 109.459 40.49 109.776C41.1993 110.093 41.554 110.695 41.554 111.582C41.554 112.301 41.2693 112.875 40.7 113.304C40.14 113.724 39.4493 114.032 38.628 114.228C39.6827 114.368 40.448 114.653 40.924 115.082C41.4 115.511 41.638 115.978 41.638 116.482C41.638 117.331 41.2833 118.069 40.574 118.694C39.874 119.319 39.0247 119.791 38.026 120.108C37.0367 120.435 36.1313 120.598 35.31 120.598ZM36.248 114.088C37.4613 114.041 38.4693 113.813 39.272 113.402C40.084 112.982 40.49 112.338 40.49 111.47C40.49 110.35 39.6127 109.79 37.858 109.79C37.3353 110.798 36.7987 112.231 36.248 114.088ZM42.7775 123.3C42.5161 123.3 42.2921 123.221 42.1055 123.062C41.9188 122.913 41.8255 122.689 41.8255 122.39C41.8255 122.026 41.9608 121.695 42.2315 121.396C42.5115 121.097 42.8335 120.845 43.1975 120.64C43.5615 120.435 44.0328 120.197 44.6115 119.926C44.7701 119.525 44.9941 118.797 45.2835 117.742C44.9475 118.218 44.6161 118.591 44.2895 118.862C43.9721 119.133 43.6315 119.268 43.2675 119.268C42.9595 119.268 42.6841 119.175 42.4415 118.988C42.1988 118.801 42.0775 118.507 42.0775 118.106C42.0775 117.789 42.1521 117.387 42.3015 116.902C42.4508 116.407 42.6281 115.978 42.8335 115.614C43.0388 115.241 43.2161 115.054 43.3655 115.054C43.4588 115.054 43.5988 115.105 43.7855 115.208C43.9721 115.301 44.0841 115.404 44.1215 115.516C43.9441 115.759 43.7481 116.165 43.5335 116.734C43.3281 117.303 43.2255 117.751 43.2255 118.078C43.2255 118.423 43.3608 118.596 43.6315 118.596C43.9115 118.596 44.2148 118.433 44.5415 118.106C44.8681 117.779 45.1808 117.378 45.4795 116.902C45.4981 116.837 45.5261 116.683 45.5635 116.44C45.6008 116.197 45.6848 115.987 45.8155 115.81C45.9461 115.623 46.1328 115.53 46.3755 115.53C46.4128 115.53 46.5621 115.549 46.8235 115.586C46.8141 115.819 46.7021 116.328 46.4875 117.112C46.2821 117.896 46.0395 118.661 45.7595 119.408C46.2168 119.221 46.6461 118.937 47.0475 118.554C47.4581 118.171 47.7801 117.667 48.0135 117.042L48.2515 117.238C48.0555 117.882 47.7148 118.423 47.2295 118.862C46.7535 119.301 46.2028 119.66 45.5775 119.94C45.1388 120.976 44.6908 121.793 44.2335 122.39C43.7855 122.997 43.3001 123.3 42.7775 123.3ZM42.6375 122.782C42.8335 122.782 43.0901 122.581 43.4075 122.18C43.7248 121.788 44.0375 121.242 44.3455 120.542C43.8041 120.813 43.3375 121.111 42.9455 121.438C42.5628 121.765 42.3715 122.082 42.3715 122.39C42.3715 122.493 42.3901 122.581 42.4275 122.656C42.4741 122.74 42.5441 122.782 42.6375 122.782ZM51.9917 120.598C51.5623 120.374 51.3477 120.085 51.3477 119.73C51.3477 119.375 51.5343 118.829 51.9077 118.092C52.281 117.345 52.7803 116.491 53.4057 115.53C52.8457 115.493 52.1597 115.474 51.3477 115.474C51.5717 114.867 52.113 114.564 52.9717 114.564C53.1583 114.564 53.5037 114.592 54.0077 114.648C55.053 113.136 56.0283 111.862 56.9337 110.826C57.839 109.79 58.441 109.272 58.7397 109.272C58.9823 109.272 59.2997 109.454 59.6917 109.818C59.505 109.958 59.2297 110.541 58.8657 111.568C58.511 112.585 58.1937 113.705 57.9137 114.928C57.643 116.141 57.5077 117.121 57.5077 117.868C57.5077 118.241 57.545 118.521 57.6197 118.708C57.7037 118.885 57.8297 118.974 57.9977 118.974C58.231 118.974 58.5063 118.806 58.8237 118.47C59.141 118.125 59.4863 117.597 59.8597 116.888L60.1117 117.154C59.813 117.947 59.4303 118.587 58.9637 119.072C58.497 119.548 58.0117 119.786 57.5077 119.786C57.0783 119.786 56.7657 119.599 56.5697 119.226C56.3737 118.853 56.2757 118.316 56.2757 117.616C56.2757 117.159 56.3363 116.58 56.4577 115.88C55.9817 115.805 55.3143 115.717 54.4557 115.614C53.5877 117.154 52.7663 118.815 51.9917 120.598ZM56.5977 115.194C56.7657 114.41 56.985 113.598 57.2557 112.758C57.5263 111.918 57.8017 111.167 58.0817 110.504C57.671 110.831 57.1903 111.372 56.6397 112.128C56.089 112.884 55.5103 113.78 54.9037 114.816L55.9537 115.04C56.2337 115.115 56.4483 115.166 56.5977 115.194ZM64.1868 119.66C63.8321 119.66 63.5568 119.571 63.3608 119.394C63.1648 119.217 63.0667 118.983 63.0667 118.694C63.0667 118.573 63.0854 118.433 63.1228 118.274C63.1694 118.115 63.2161 117.957 63.2628 117.798C63.3934 117.369 63.4588 117.051 63.4588 116.846C63.4588 116.659 63.4121 116.524 63.3188 116.44C63.2254 116.347 63.1088 116.3 62.9688 116.3C62.4741 116.3 61.9748 116.613 61.4708 117.238C60.9668 117.854 60.4254 118.638 59.8468 119.59C59.4454 119.59 59.1421 119.455 58.9367 119.184L59.0627 118.834C59.6134 117.499 59.8888 116.51 59.8888 115.866C59.9634 115.782 60.0708 115.707 60.2108 115.642C60.3508 115.567 60.4861 115.53 60.6168 115.53C60.7754 115.53 60.8968 115.567 60.9808 115.642C61.0648 115.717 61.1068 115.819 61.1068 115.95C61.1068 116.202 61.0274 116.617 60.8688 117.196C61.2888 116.636 61.7228 116.179 62.1708 115.824C62.6281 115.469 63.0761 115.292 63.5148 115.292C63.8881 115.292 64.1774 115.423 64.3828 115.684C64.5881 115.936 64.6908 116.239 64.6908 116.594C64.6908 116.799 64.6628 116.995 64.6068 117.182C64.5601 117.369 64.4854 117.579 64.3828 117.812C64.2241 118.204 64.1448 118.498 64.1448 118.694C64.1448 118.834 64.1774 118.937 64.2428 119.002C64.3081 119.067 64.3874 119.1 64.4808 119.1C64.7888 119.1 65.1201 118.89 65.4748 118.47C65.8388 118.041 66.1654 117.537 66.4548 116.958L66.6928 117.154C66.3568 117.929 65.9834 118.54 65.5728 118.988C65.1714 119.436 64.7094 119.66 64.1868 119.66ZM70.8039 119.66C70.4493 119.66 70.1739 119.571 69.9779 119.394C69.7819 119.217 69.6839 118.983 69.6839 118.694C69.6839 118.573 69.7026 118.433 69.7399 118.274C69.7866 118.115 69.8333 117.957 69.8799 117.798C70.0106 117.369 70.0759 117.051 70.0759 116.846C70.0759 116.659 70.0293 116.524 69.9359 116.44C69.8426 116.347 69.7259 116.3 69.5859 116.3C69.0913 116.3 68.5919 116.613 68.0879 117.238C67.5839 117.854 67.0426 118.638 66.4639 119.59C66.0626 119.59 65.7593 119.455 65.5539 119.184L65.6799 118.834C66.2306 117.499 66.5059 116.51 66.5059 115.866C66.5806 115.782 66.6879 115.707 66.8279 115.642C66.9679 115.567 67.1033 115.53 67.2339 115.53C67.3926 115.53 67.5139 115.567 67.5979 115.642C67.6819 115.717 67.7239 115.819 67.7239 115.95C67.7239 116.202 67.6446 116.617 67.4859 117.196C67.9059 116.636 68.3399 116.179 68.7879 115.824C69.2453 115.469 69.6933 115.292 70.1319 115.292C70.5053 115.292 70.7946 115.423 70.9999 115.684C71.2053 115.936 71.3079 116.239 71.3079 116.594C71.3079 116.799 71.2799 116.995 71.2239 117.182C71.1773 117.369 71.1026 117.579 70.9999 117.812C70.8413 118.204 70.7619 118.498 70.7619 118.694C70.7619 118.834 70.7946 118.937 70.8599 119.002C70.9253 119.067 71.0046 119.1 71.0979 119.1C71.4059 119.1 71.7373 118.89 72.0919 118.47C72.4559 118.041 72.7826 117.537 73.0719 116.958L73.3099 117.154C72.9739 117.929 72.6006 118.54 72.1899 118.988C71.7886 119.436 71.3266 119.66 70.8039 119.66ZM73.4871 120.038C73.1605 120.038 72.8898 119.931 72.6751 119.716C72.4511 119.501 72.3391 119.198 72.3391 118.806C72.3391 118.265 72.5351 117.658 72.9271 116.986C73.3285 116.314 73.8371 115.745 74.4531 115.278C75.0691 114.811 75.6851 114.578 76.3011 114.578C76.7118 114.578 77.0525 114.685 77.3231 114.9C77.6031 115.105 77.7431 115.371 77.7431 115.698C77.7431 116.127 77.4771 116.351 76.9451 116.37C77.2811 116.473 77.4491 116.613 77.4491 116.79C77.4491 116.855 77.4165 116.953 77.3511 117.084C77.2858 117.215 77.2111 117.35 77.1271 117.49C76.9778 117.733 76.8611 117.947 76.7771 118.134C76.6931 118.311 76.6511 118.479 76.6511 118.638C76.6511 118.778 76.6838 118.899 76.7491 119.002C76.8238 119.095 76.9311 119.142 77.0711 119.142C77.3325 119.142 77.6638 118.96 78.0651 118.596C78.4758 118.232 78.8725 117.686 79.2551 116.958L79.5211 117.224C79.1758 117.999 78.7465 118.624 78.2331 119.1C77.7198 119.567 77.2018 119.8 76.6791 119.8C76.3058 119.8 76.0165 119.674 75.8111 119.422C75.6151 119.179 75.5171 118.899 75.5171 118.582C75.0971 119.086 74.7378 119.455 74.4391 119.688C74.1405 119.921 73.8231 120.038 73.4871 120.038ZM73.7811 119.324C74.1078 119.324 74.4858 119.091 74.9151 118.624C75.3538 118.148 75.8485 117.532 76.3991 116.776L76.6791 116.398C76.7071 116.351 76.7445 116.328 76.7911 116.328L76.8471 116.342C76.8938 116.193 76.9171 116.02 76.9171 115.824C76.9171 115.339 76.7211 115.096 76.3291 115.096C75.9185 115.096 75.4891 115.315 75.0411 115.754C74.5931 116.193 74.2151 116.715 73.9071 117.322C73.6085 117.929 73.4591 118.447 73.4591 118.876C73.4591 119.035 73.4825 119.151 73.5291 119.226C73.5851 119.291 73.6691 119.324 73.7811 119.324Z" fill="#F6F7F6"/>
<path d="M15.4778 26.4083C15.1002 26.6069 14.7424 26.7287 14.4046 26.7738C14.0811 26.8233 13.7436 26.7658 13.3919 26.6012C13.2207 26.161 13.0002 25.2947 12.7305 24.0025C12.4701 22.7052 12.2185 21.3673 11.9756 19.9886C11.7422 18.6049 11.5967 17.6751 11.5393 17.1991C11.4937 16.8374 11.4906 16.4534 11.53 16.0471C11.5739 15.6263 11.7375 15.3414 12.0207 15.1925C12.1812 15.1081 12.3953 15.0799 12.6631 15.1078C12.7768 16.6991 13.0172 18.543 13.3846 20.6397C13.7613 22.7313 14.1635 24.5505 14.5911 26.0972C14.7814 26.0694 15.0323 25.9737 15.3439 25.8098C16.3163 25.2985 17.036 24.4441 17.503 23.2465C17.9744 22.0345 18.1793 20.7396 18.1178 19.362C18.0512 17.9749 17.7549 16.781 17.2287 15.7803C16.6528 14.6851 15.9521 14.0171 15.1265 13.7764C14.2959 13.5261 13.4228 13.6418 12.507 14.1233C11.8933 14.446 11.4006 14.8497 11.0288 15.3345C10.6521 15.8097 10.4238 16.3154 10.3441 16.8514C10.2739 17.3825 10.3653 17.8887 10.6185 18.3702C10.7526 18.6251 10.9142 18.8294 11.1034 18.983C10.7163 19.1865 10.3862 19.2577 10.113 19.1964C9.84422 19.1208 9.63787 18.9461 9.49391 18.6723C9.26058 18.2286 9.2372 17.6685 9.42376 16.9919C9.61032 16.3153 9.98542 15.6421 10.549 14.9721C11.1221 14.2972 11.8288 13.7388 12.669 13.297C13.9719 12.6119 15.1213 12.4715 16.1172 12.8758C17.1226 13.2751 17.938 14.0696 18.5635 15.2591C19.2535 16.5714 19.5615 17.9822 19.4874 19.4914C19.4083 20.9912 19.0046 22.3665 18.2763 23.6171C17.553 24.8772 16.6202 25.8076 15.4778 26.4083Z" fill="#F6F7F6"/>
<path d="M21.8304 22.3963C21.4263 22.5634 21.0755 22.5526 20.7782 22.3639C20.4907 22.1711 20.2655 21.8776 20.1025 21.4833C19.9313 21.0693 19.8378 20.6058 19.822 20.093C19.816 19.576 19.8899 19.1126 20.0436 18.7028C20.1974 18.293 20.4172 18.029 20.7031 17.9108C20.8213 17.8619 20.9904 17.8381 21.2103 17.8395C21.082 17.3617 21.0848 16.9219 21.2189 16.5202C21.3628 16.1144 21.6713 15.8137 22.1444 15.6181C22.5387 15.4551 22.8764 15.4482 23.1574 15.5975C23.4344 15.7369 23.6462 15.9841 23.7929 16.3389C23.9356 16.6839 24.0049 17.117 24.001 17.638C24.007 18.1549 23.9588 18.6943 23.8563 19.256C23.999 19.2663 24.1493 19.2388 24.307 19.1736C24.583 19.0595 24.842 18.8485 25.0841 18.5406C25.3221 18.2229 25.4475 17.8422 25.4602 17.3983L25.8058 17.4805C25.7944 18.0392 25.6622 18.5152 25.4093 18.9083C25.1661 19.2974 24.8573 19.5694 24.4827 19.7242C24.256 19.818 23.9912 19.8755 23.6884 19.8968C23.503 20.4813 23.2505 21.0013 22.9309 21.4566C22.6113 21.9119 22.2444 22.2252 21.8304 22.3963ZM23.2252 19.1534C23.3208 18.6868 23.366 18.2237 23.3607 17.7642C23.3652 17.3006 23.3023 16.9111 23.1719 16.5957C22.9926 16.162 22.7649 16.0022 22.4889 16.1163C22.3608 16.1693 22.2542 16.2884 22.1692 16.4736C22.0841 16.6588 22.0421 16.8781 22.043 17.1317C22.0399 17.3754 22.0913 17.6253 22.1973 17.8816C22.291 18.1084 22.4385 18.3533 22.6396 18.6164C22.8366 18.8697 23.0318 19.0487 23.2252 19.1534ZM22.051 21.4222C22.2284 21.3488 22.4045 21.1606 22.5793 20.8575C22.7541 20.5544 22.9064 20.197 23.0364 19.7855C22.2707 19.5249 21.6755 18.9227 21.2506 17.9787C21.1567 18.0868 21.0892 18.3282 21.048 18.7031C21.0067 19.078 21.0044 19.4771 21.041 19.9006C21.0776 20.3241 21.1529 20.6739 21.267 20.9499C21.4545 21.4033 21.7158 21.5607 22.051 21.4222Z" fill="#F6F7F6"/>
<path d="M27.9471 20.0273C27.6119 20.1348 27.2821 20.0669 26.9577 19.8236C26.6333 19.5804 26.4027 19.2455 26.2659 18.8188C26.1487 18.4532 26.0834 17.97 26.0701 17.3694C26.0568 16.7688 26.0917 16.2312 26.1747 15.7565C26.2679 15.2786 26.3958 15.0135 26.5583 14.9614C26.6294 14.9386 26.7491 14.9451 26.9173 14.9808C27.0925 15.003 27.2539 15.0521 27.4014 15.128C27.289 15.5113 27.2105 16.0349 27.1657 16.699C27.1311 17.3597 27.1822 17.9034 27.319 18.33C27.3808 18.523 27.4714 18.718 27.5905 18.9151C27.7166 19.0987 27.8761 19.1595 28.0691 19.0977C28.4449 18.9772 28.7584 18.4175 29.0094 17.4185C29.2673 16.4061 29.4458 15.4079 29.5448 14.4241C30.1868 14.3303 30.5469 14.4053 30.6251 14.649C30.6316 14.6694 30.6179 14.8362 30.5839 15.1495C30.5301 15.7156 30.4955 16.2364 30.4799 16.7118C30.4643 17.1873 30.5069 17.5825 30.6079 17.8974C30.7219 18.2529 30.916 18.3867 31.1902 18.2987C31.4035 18.2304 31.6265 18.0525 31.8592 17.765C32.0988 17.4642 32.3175 17.0805 32.5151 16.6139C32.7095 16.1371 32.8454 15.6175 32.9227 15.055L33.2098 15.1646C33.1622 15.7847 33.0307 16.3702 32.8152 16.9209C32.5997 17.4717 32.3228 17.9357 31.9845 18.313C31.6596 18.6971 31.3092 18.9495 30.9334 19.07C30.4865 19.2132 30.1481 19.1537 29.9184 18.8913C29.6956 18.6155 29.5011 18.2186 29.335 17.7005C29.159 18.3394 28.9675 18.8601 28.7604 19.2625C28.5534 19.6649 28.2823 19.9198 27.9471 20.0273Z" fill="#F6F7F6"/>
<path d="M35.8982 18.4779C35.3159 18.6112 34.8271 18.5316 34.4319 18.239C34.0367 17.9465 33.7641 17.4727 33.6142 16.8177C33.3905 15.8403 33.4037 14.4639 33.654 12.6887C33.9018 10.9031 34.2809 9.28436 34.7912 7.83258C35.2991 6.3704 35.7818 5.58696 36.2393 5.48225C36.4369 5.43703 36.6127 5.5117 36.7666 5.70626C36.931 5.89844 37.0505 6.1337 37.1251 6.41206C37.2393 6.91116 37.2177 7.60549 37.0602 8.49505C36.9003 9.37421 36.6241 10.2472 36.2316 11.1139C35.8495 11.9783 35.3922 12.6575 34.8596 13.1514C34.7759 13.455 34.7223 13.9379 34.6987 14.5998C34.6831 15.249 34.7408 15.8595 34.8717 16.4314C34.9764 16.8889 35.1221 17.2385 35.3087 17.4803C35.5081 17.7301 35.7482 17.8229 36.029 17.7586C36.2993 17.6967 36.5619 17.5053 36.8167 17.1844C37.0739 16.8739 37.2596 16.514 37.3739 16.1049C36.952 15.9826 36.5954 15.7633 36.3042 15.447C36.0209 15.1179 35.8305 14.7401 35.733 14.3138C35.6187 13.8147 35.6611 13.3783 35.86 13.0045C36.0566 12.6203 36.3576 12.3818 36.7632 12.289C37.1167 12.208 37.4284 12.279 37.6982 12.5017C37.9656 12.7141 38.1577 13.075 38.2743 13.5845C38.4195 14.2187 38.4134 14.9095 38.2562 15.6567L38.5405 15.6081C39.0188 15.4986 39.3758 15.2418 39.6116 14.8377C39.8474 14.4336 40.0289 13.9598 40.1562 13.4164L40.4651 13.6903C40.3319 14.3993 40.1087 14.9537 39.7954 15.3537C39.49 15.7409 39.0411 16.0023 38.4484 16.138C38.3028 16.1713 38.1924 16.1911 38.1173 16.1974C37.9116 16.7806 37.6249 17.273 37.2572 17.6745C36.8918 18.0864 36.4388 18.3542 35.8982 18.4779ZM34.931 12.101C35.2693 11.6187 35.5658 11.0256 35.8205 10.3217C36.0728 9.60738 36.2583 8.93573 36.377 8.30674C36.4932 7.66735 36.528 7.22169 36.4813 6.96976C36.358 7.05269 36.1836 7.36618 35.9579 7.91023C35.7323 8.45429 35.5213 9.1099 35.3248 9.87707C35.126 10.6338 34.9947 11.3751 34.931 12.101ZM37.5213 15.5295C37.6108 15.0604 37.6033 14.597 37.4986 14.1395C37.4177 13.786 37.3142 13.5252 37.1882 13.3571C37.0622 13.1889 36.9316 13.1203 36.7964 13.1513C36.6612 13.1822 36.5631 13.3032 36.5019 13.5141C36.4512 13.7227 36.4555 13.957 36.515 14.2169C36.5745 14.4768 36.6884 14.7353 36.8566 14.9922C37.0329 15.2364 37.2544 15.4155 37.5213 15.5295Z" fill="#F6F7F6"/>
<path d="M42.9141 16.7785C42.1754 16.8875 41.5947 16.7522 41.1721 16.3725C40.7615 16.0019 40.5126 15.5211 40.4254 14.9301C40.3646 14.5186 40.3964 14.2228 40.5208 14.0427C40.6436 13.852 40.7885 13.7013 40.9554 13.5904C41.1329 13.4779 41.2351 13.4035 41.2621 13.3672C41.8346 12.571 42.2396 11.7726 42.4772 10.972L42.4539 10.8137C42.3962 10.4233 42.4167 10.1237 42.5153 9.91509C42.6244 9.70489 42.7845 9.58422 42.9955 9.55305C43.2277 9.51878 43.3699 9.6056 43.4222 9.81353C43.43 9.86629 43.4258 9.94777 43.4097 10.058C43.4042 10.1666 43.41 10.279 43.4272 10.395C43.4568 10.5955 43.5196 10.8019 43.6156 11.0142C43.7116 11.2264 43.8563 11.5123 44.0496 11.872C44.287 12.3113 44.4728 12.6936 44.6071 13.0188C44.7519 13.3425 44.85 13.6784 44.9014 14.0266C44.9279 14.206 44.9388 14.4255 44.9339 14.685C45.625 14.3996 46.1596 13.7115 46.5376 12.6206L46.7486 12.735C46.6263 13.3676 46.4025 13.8967 46.0772 14.3221C45.7624 14.7459 45.3572 15.0322 44.8616 15.1808C44.7551 15.6279 44.5275 15.9849 44.1787 16.2521C43.8316 16.5298 43.41 16.7052 42.9141 16.7785ZM43.6788 14.8379C43.6965 14.7383 43.6881 14.5724 43.6539 14.3402C43.5934 14.0041 43.5074 13.6772 43.3958 13.3594C43.2842 13.0416 43.1269 12.6336 42.9239 12.1352L42.6974 11.5864C42.3127 12.5597 41.9511 13.287 41.6124 13.7683C41.837 14.0478 42.1315 14.2901 42.496 14.495C42.859 14.6894 43.2533 14.8037 43.6788 14.8379ZM42.7004 16.0984C42.9115 16.0672 43.0989 15.9856 43.2627 15.8536C43.4371 15.72 43.5569 15.546 43.6223 15.3315C43.1983 15.3078 42.7951 15.2056 42.4125 15.0249C42.0285 14.8336 41.7107 14.6164 41.4591 14.3732C41.3161 14.4266 41.2632 14.58 41.3006 14.8333C41.3567 15.2131 41.5121 15.5352 41.7668 15.7995C42.0199 16.0533 42.3311 16.1529 42.7004 16.0984Z" fill="#F6F7F6"/>
<path d="M49.9702 16.6041C49.3098 16.6401 48.8085 16.5553 48.4661 16.3497C48.1349 16.1541 47.9509 15.817 47.9141 15.3383C47.9083 15.2318 47.964 15.1753 48.0811 15.1689C48.145 15.1654 48.2903 15.1842 48.5168 15.2252C48.7535 15.2551 49.1327 15.2557 49.6546 15.2272C50.8688 15.1609 51.9568 14.9359 52.9187 14.5523C53.8906 14.1574 54.644 13.6729 55.1788 13.0989C55.7137 12.5249 55.9645 11.9343 55.9314 11.3272C55.8906 10.5817 55.4746 10.1023 54.6831 9.88914C53.891 9.66532 52.8933 9.58626 51.6897 9.65198L50.5083 9.7325C50.3782 10.2844 50.2618 10.7929 50.159 11.2578C50.0668 11.7222 49.9821 12.1274 49.9049 12.4735C49.6594 13.6513 49.4891 14.4457 49.3941 14.8569C49.0745 14.8743 48.793 14.8042 48.5493 14.6466C48.3057 14.489 48.1772 14.2877 48.1638 14.0427C48.1534 13.851 48.1933 13.6031 48.2835 13.2991L48.3369 13.1039L48.5097 12.4535C49.4907 8.70379 50.3575 5.99116 51.1099 4.31565C50.5838 4.46189 50.0469 4.70485 49.4993 5.04454C49.4472 5.06875 49.3747 5.1101 49.2817 5.16859C49.1882 5.21643 49.1201 5.24151 49.0775 5.24384C48.971 5.24965 48.8338 5.18236 48.6659 5.04198C48.4974 4.89094 48.4102 4.76216 48.4044 4.65565C49.1231 4.31731 49.7659 4.05788 50.3329 3.87736C50.9105 3.69627 51.5934 3.5842 52.3816 3.54117C53.436 3.4836 54.3778 3.61378 55.2071 3.93171C56.0363 4.24964 56.4786 4.91452 56.5338 5.92634C56.5786 6.74646 56.2895 7.41922 55.6665 7.94463C55.0537 8.45881 54.2847 8.85332 53.3596 9.12816C54.5719 9.22221 55.463 9.49937 56.0329 9.95965C56.6029 10.4199 56.9036 10.9376 56.935 11.5128C56.9879 12.482 56.6291 13.3455 55.8586 14.1033C55.0987 14.8605 54.1589 15.4513 53.039 15.8757C51.9304 16.3101 50.9074 16.5529 49.9702 16.6041ZM50.635 9.11669C52.0167 8.98783 53.1527 8.66408 54.0431 8.14544C54.9435 7.61556 55.3667 6.85535 55.3126 5.86483C55.2428 4.58673 54.2068 4.00235 52.2044 4.11168C51.6708 5.29453 51.1476 6.96286 50.635 9.11669Z" fill="#F6F7F6"/>
<path d="M60.2128 8.40539C59.9889 8.39852 59.7986 8.33932 59.642 8.2278C59.496 8.1166 59.4261 7.95971 59.4323 7.75714C59.4398 7.51193 59.5797 7.30278 59.8518 7.12972C60.1349 6.94631 60.431 6.85936 60.7402 6.86885C61.1986 6.88292 61.4218 7.08719 61.4097 7.48167C61.4028 7.70557 61.2735 7.92037 61.0217 8.12608C60.7703 8.32112 60.5007 8.41423 60.2128 8.40539ZM58.1043 15.5601C57.6565 15.5463 57.3141 15.4024 57.0771 15.1284C56.84 14.8543 56.7279 14.5094 56.7407 14.0936C56.7538 13.6671 56.8887 13.095 57.1455 12.3772C57.4133 11.649 57.737 11.0133 58.1165 10.4701C58.5066 9.9271 58.8883 9.66135 59.2615 9.6728C59.4001 9.67706 59.5107 9.72314 59.5934 9.81105C59.6871 9.88863 59.7316 10.002 59.727 10.1513C59.7241 10.2473 59.6773 10.3792 59.5868 10.5472C59.4966 10.7045 59.3508 10.9348 59.1494 11.2381C58.7909 11.7927 58.5036 12.2855 58.2876 12.7164C58.0826 13.1369 57.9743 13.5391 57.9625 13.923C57.9523 14.2535 58.0041 14.4792 58.1178 14.6C58.2315 14.7209 58.4109 14.7851 58.6561 14.7926C59.4984 14.8185 60.3604 14.0286 61.242 12.4229L61.4741 12.6861C61.0721 13.6129 60.5753 14.3286 59.9835 14.8334C59.3917 15.3381 58.7653 15.5804 58.1043 15.5601Z" fill="#F6F7F6"/>
<path d="M63.8736 16.1574C63.2049 16.0911 62.7026 15.8591 62.3669 15.4613C62.0312 15.0636 61.8912 14.5834 61.947 14.0208C62.0081 13.4052 62.2809 12.7623 62.7654 12.0922C63.251 11.4115 63.8412 10.8644 64.5361 10.451C65.232 10.0269 65.8931 9.84594 66.5193 9.90806C66.8484 9.9407 67.1159 10.053 67.322 10.2449C67.5291 10.4263 67.6137 10.708 67.5758 11.0901C67.5253 11.5996 67.281 12.0631 66.843 12.4806C66.406 12.8874 65.8602 13.2031 65.2055 13.4276C64.5614 13.6531 63.912 13.7709 63.2571 13.781C63.2254 13.885 63.2026 14.006 63.189 14.144C63.1616 14.42 63.2085 14.7034 63.3297 14.9941C63.4616 15.2858 63.7823 15.457 64.2918 15.5075C64.9392 15.5718 65.6231 15.377 66.3435 14.9232C67.0754 14.4598 67.6874 13.856 68.1792 13.1115L68.4724 13.3979C67.9531 14.3111 67.2664 15.0201 66.4124 15.5249C65.569 16.0308 64.7227 16.2417 63.8736 16.1574ZM63.4907 13.2092C63.877 13.2047 64.3169 13.0929 64.8102 12.8739C65.3142 12.6559 65.7497 12.3721 66.1166 12.0226C66.4846 11.6625 66.6871 11.2967 66.7239 10.9252C66.7355 10.8085 66.7222 10.7267 66.6839 10.6801C66.6457 10.6334 66.5788 10.6053 66.4833 10.5959C66.1754 10.5653 65.821 10.6802 65.42 10.9406C65.0307 11.1914 64.66 11.5244 64.308 11.9397C63.956 12.355 63.6835 12.7782 63.4907 13.2092Z" fill="#F6F7F6"/>
<path d="M73.7446 17.2748C73.3458 17.2019 73.0545 17.0457 72.8706 16.8061C72.6866 16.5665 72.6244 16.284 72.6838 15.9587C72.7087 15.8223 72.7585 15.6688 72.833 15.4981C72.9181 15.3293 73.0031 15.1605 73.0882 14.9917C73.3232 14.5358 73.4619 14.1925 73.504 13.9616C73.5424 13.7518 73.5177 13.59 73.43 13.4764C73.3443 13.3523 73.2227 13.2759 73.0653 13.2472C72.5092 13.1456 71.8836 13.3945 71.1885 13.9941C70.4954 14.5831 69.7258 15.3533 68.8797 16.3048C68.4285 16.2224 68.1153 16.0079 67.94 15.6614L68.1535 15.2938C69.0467 13.9064 69.5595 12.8507 69.6917 12.1267C69.7929 12.0476 69.9289 11.9857 70.0997 11.941C70.2725 11.8858 70.4323 11.8716 70.5792 11.8984C70.7576 11.931 70.8863 11.9979 70.9654 12.0991C71.0445 12.2003 71.0706 12.3244 71.0438 12.4713C70.9921 12.7546 70.8176 13.2052 70.5203 13.8232C71.1075 13.2799 71.6894 12.8549 72.2659 12.5481C72.8529 12.2433 73.393 12.1359 73.8861 12.226C74.3059 12.3027 74.6043 12.509 74.7815 12.845C74.9606 13.1705 75.0137 13.5326 74.9409 13.9313C74.8987 14.1622 74.827 14.3768 74.7257 14.5751C74.6349 14.7754 74.5078 14.9962 74.3445 15.2374C74.0856 15.6455 73.936 15.9598 73.8957 16.1801C73.867 16.3375 73.8826 16.4597 73.9427 16.5465C74.0027 16.6334 74.0852 16.6864 74.1901 16.7056C74.5364 16.7688 74.952 16.6008 75.437 16.2014C75.9344 15.7935 76.4052 15.294 76.8493 14.7028L77.0766 14.9721C76.5398 15.774 75.9945 16.3846 75.4408 16.8039C74.8976 17.2252 74.3322 17.3821 73.7446 17.2748Z" fill="#F6F7F6"/>
<path d="M78.8427 19.7076C78.2058 19.5295 77.6716 19.2416 77.2401 18.844C76.8085 18.4464 76.5159 17.988 76.3621 17.4687C76.2185 16.9523 76.2215 16.427 76.3709 15.8928C76.5404 15.2868 76.8736 14.7486 77.3707 14.2785C77.8808 13.8009 78.4898 13.4451 79.1977 13.2112C79.9055 12.9772 80.6436 12.9123 81.412 13.0164C81.1415 12.5974 80.9647 12.1603 80.8816 11.7051C80.8087 11.2527 80.8327 10.8108 80.9533 10.3794C81.1056 9.83495 81.3894 9.35498 81.8046 8.93948C82.2331 8.51658 82.7406 8.22657 83.3273 8.06946C83.9271 7.90494 84.5506 7.91319 85.1977 8.0942C85.8244 8.26946 86.2641 8.55858 86.5169 8.96157C86.7725 9.35429 86.8199 9.83827 86.659 10.4135C86.5527 10.7936 86.3759 11.1484 86.1287 11.478C85.8917 11.8105 85.6323 12.0647 85.3505 12.2406C85.0819 12.4091 84.8551 12.4675 84.6702 12.4158C84.4134 12.344 84.2257 12.0645 84.1073 11.5772C85.2181 11.0904 85.8626 10.5286 86.0407 9.8917C86.124 9.5938 86.086 9.33394 85.9265 9.11211C85.7773 8.89317 85.5332 8.73628 85.1942 8.64147C84.7525 8.51792 84.3336 8.55029 83.9376 8.73858C83.5444 8.9166 83.2039 9.20348 82.916 9.59922C82.631 9.98469 82.4209 10.4188 82.2859 10.9016C82.1509 11.3844 82.1089 11.8711 82.16 12.3617C82.2242 12.8448 82.4135 13.2965 82.728 13.7168C81.9773 13.6286 81.27 13.7022 80.6061 13.9374C79.9554 14.1652 79.4012 14.5031 78.9436 14.951C78.4992 15.3916 78.2037 15.8738 78.0572 16.3977C77.9595 16.747 77.9315 17.1047 77.9731 17.4707C78.0249 17.8397 78.1697 18.1737 78.4072 18.4727C78.6419 18.782 78.9904 19.0013 79.4526 19.1306C79.9971 19.2829 80.5846 19.2811 81.2153 19.1252C81.8562 18.9722 82.4796 18.7035 83.0855 18.3192C83.6914 17.9348 84.2149 17.4887 84.6561 16.9807L84.9988 17.359C84.0738 18.3298 83.0785 19.0371 82.0128 19.4812C80.9472 19.9252 79.8905 20.0007 78.8427 19.7076ZM87.6322 8.35975C87.5602 8.06272 87.4628 7.79733 87.3398 7.56358C87.2272 7.3327 87.0741 7.06836 86.8805 6.77053C86.3648 6.79245 85.7662 6.91301 85.0847 7.13219C85.0243 7.07099 84.9901 6.99499 84.9823 6.90419C84.9774 6.80312 84.9849 6.71663 85.005 6.64472C85.0568 6.45982 85.2244 6.29625 85.5078 6.15401C85.7913 6.01177 86.0969 5.90897 86.4248 5.8456C86.7629 5.78511 87.009 5.77641 87.1631 5.81951C87.3274 5.86548 87.5019 6.01396 87.6864 6.26494C87.871 6.51593 88.0147 6.79425 88.1175 7.0999C88.2203 7.40556 88.2429 7.66111 88.1855 7.86656C88.1539 7.97956 88.0915 8.08393 87.9982 8.17969C87.905 8.27545 87.783 8.33547 87.6322 8.35975Z" fill="#F6F7F6"/>
<path d="M85.0968 21.0624C84.6367 20.8921 84.3265 20.6237 84.1664 20.2574C84.0026 19.901 84.017 19.4627 84.2096 18.9426C84.354 18.5525 84.6123 18.0851 84.9845 17.5404C85.3605 16.9858 85.7994 16.4146 86.3013 15.827C86.0597 15.6807 85.9013 15.5709 85.8261 15.4975L85.9983 15.0324C86.2273 15.1512 86.4581 15.2651 86.6908 15.374C87.5594 14.4103 88.3987 13.6177 89.2088 12.9963C90.0289 12.3786 90.5991 12.129 90.9192 12.2475C91.0292 12.2882 91.1094 12.3634 91.1598 12.4731C91.2202 12.5864 91.2264 12.7081 91.1782 12.8382C91.119 12.9982 90.9693 13.1874 90.7293 13.4056C90.4893 13.6239 90.1074 13.9488 89.5836 14.3805C88.8694 14.9578 88.2947 15.4503 87.8595 15.8578C89.0099 16.2837 89.9381 16.5875 90.6443 16.7693L90.461 17.2645C89.2361 16.9475 88.2086 16.6354 87.3783 16.328C86.4027 17.3659 85.7704 18.2749 85.4816 19.0552C85.3298 19.4653 85.2874 19.7795 85.3545 19.9977C85.4216 20.2159 85.5952 20.3768 85.8753 20.4805C86.3754 20.6657 86.9689 20.6294 87.6557 20.3719C88.3562 20.108 89.046 19.6581 89.7249 19.0223L89.8794 19.2501C89.1249 20.0286 88.3133 20.5925 87.4446 20.942C86.5796 21.2815 85.797 21.3217 85.0968 21.0624Z" fill="#F6F7F6"/>
<path d="M91.9875 23.5878C91.6282 23.4246 91.3809 23.1952 91.2457 22.8996C91.1061 22.6136 91.109 22.3104 91.2545 21.9899C91.3383 21.8053 91.4626 21.6216 91.6276 21.4388C91.8068 21.2507 92.0397 21.0343 92.3265 20.7896C92.5762 20.575 92.7769 20.3908 92.9287 20.2372C93.0849 20.0738 93.196 19.9192 93.2622 19.7735C93.4297 19.4045 93.328 18.9834 92.957 18.5104C92.5423 18.9079 92.0914 19.2948 91.6043 19.6711C91.1269 20.0518 90.709 20.3658 90.3507 20.6132L90.324 20.0915C91.1323 19.4978 91.9247 18.7974 92.7012 17.9902C92.6481 17.8489 92.6591 17.6958 92.734 17.5307C92.8487 17.2781 93.0344 17.0754 93.2912 16.9226C93.548 16.7697 93.7493 16.7264 93.895 16.7925C93.9921 16.8366 94.0434 16.9302 94.0487 17.0732C94.0638 17.2206 94.0537 17.3332 94.0184 17.4109C94.0008 17.4497 93.9368 17.5261 93.8265 17.64C93.7304 17.7487 93.6593 17.8277 93.6135 17.8772C93.5923 17.9496 93.6003 18.0352 93.6374 18.134C93.679 18.2232 93.7655 18.3679 93.8972 18.5682C94.1357 18.946 94.2988 19.2835 94.3863 19.581C94.488 19.8731 94.4594 20.194 94.3007 20.5437C94.2037 20.7574 94.0678 20.9534 93.8931 21.1318C93.7282 21.3146 93.5045 21.5235 93.2221 21.7585C92.8144 22.0889 92.5687 22.3463 92.4849 22.5308C92.3835 22.7542 92.4542 22.9211 92.697 23.0313C92.9884 23.1636 93.357 23.1903 93.8027 23.1115C94.2582 23.0371 94.7018 22.8988 95.1333 22.6964C95.579 22.4887 95.936 22.2701 96.2043 22.0404L96.4349 22.4614C96.0422 22.8103 95.5807 23.1045 95.0502 23.344C94.5198 23.5834 93.9787 23.7303 93.427 23.7844C92.885 23.8429 92.4052 23.7774 91.9875 23.5878Z" fill="#F6F7F6"/>
<path d="M96.6174 26.2665C96.028 25.9436 95.6568 25.5335 95.5036 25.0361C95.3504 24.5386 95.4096 24.042 95.6812 23.5462C95.9784 23.0036 96.4811 22.5188 97.1893 22.0919C97.9026 21.6556 98.6599 21.3833 99.4611 21.2749C100.268 21.1571 100.947 21.2494 101.499 21.5518C101.789 21.7107 101.991 21.9187 102.105 22.176C102.225 22.424 102.192 22.7163 102.008 23.0531C101.762 23.5022 101.356 23.833 100.789 24.0457C100.228 24.249 99.6021 24.3257 98.9118 24.276C98.2308 24.2314 97.5871 24.0855 96.9806 23.8384C96.9106 23.9217 96.8423 24.0241 96.7757 24.1457C96.6425 24.389 96.5747 24.6681 96.5725 24.9831C96.5795 25.3032 96.8076 25.5862 97.2567 25.8322C97.8273 26.1448 98.5329 26.2333 99.3733 26.0977C100.228 25.9579 101.028 25.6418 101.772 25.1494L101.93 25.5277C101.094 26.1647 100.185 26.5482 99.2012 26.6784C98.2271 26.8137 97.3658 26.6764 96.6174 26.2665ZM97.4193 23.4037C97.7766 23.5508 98.2251 23.6201 98.7649 23.6117C99.314 23.6084 99.8257 23.5178 100.3 23.3399C100.78 23.1526 101.109 22.8953 101.289 22.5679C101.345 22.465 101.365 22.3845 101.348 22.3266C101.331 22.2687 101.28 22.2167 101.196 22.1706C100.925 22.022 100.554 21.9889 100.083 22.0715C99.6264 22.1499 99.155 22.3112 98.6684 22.5555C98.1819 22.7998 97.7655 23.0826 97.4193 23.4037Z" fill="#F6F7F6"/>
<g clip-path="url(#clip0)">
<path d="M63.6377 65.1962C66.2112 62.4311 66.0023 58.0581 65.9919 57.8694C65.9755 57.5712 65.7373 57.3332 65.4391 57.3167C65.3499 57.3116 64.0857 57.25 62.5038 57.572C62.1917 55.9695 61.645 54.8182 61.6191 54.764C61.4898 54.4949 61.1789 54.3661 60.8969 54.465C60.8403 54.4848 59.6403 54.912 58.2872 55.8241C57.3996 54.4839 56.4649 53.635 56.3908 53.5686C56.1685 53.3694 55.8317 53.3694 55.6092 53.5686C55.5351 53.635 54.6005 54.4839 53.7129 55.8242C52.3597 54.9122 51.1596 54.4848 51.1032 54.465C50.8213 54.3662 50.5102 54.4949 50.381 54.764C50.355 54.8182 49.8081 55.9695 49.4962 57.5721C47.9144 57.2502 46.65 57.3118 46.5608 57.3167C46.2626 57.3332 46.0246 57.5712 46.0081 57.8695C45.9976 58.0581 45.7888 62.4311 48.3624 65.1962C47.0512 65.9221 46.1927 66.8704 46.1503 66.9177C45.9512 67.1402 45.9512 67.4769 46.1503 67.6994C46.2435 67.8035 48.4646 70.2478 51.2933 70.2478C52.0283 70.2478 52.722 70.0825 53.3483 69.8364C53.9994 71.8088 55.5368 73.2031 55.6091 73.2681C55.7203 73.3676 55.8602 73.4175 56 73.4175C56.1398 73.4175 56.2796 73.3676 56.3908 73.2681C56.4633 73.2033 58.0003 71.8088 58.6515 69.8366C59.2779 70.0825 59.9716 70.2478 60.7066 70.2478C63.5353 70.2478 65.7565 67.8035 65.8497 67.6994C66.0489 67.4769 66.0489 67.1402 65.8497 66.9177C65.8072 66.8702 64.9485 65.9219 63.6377 65.1962ZM62.6408 64.5427C61.1168 66.0667 58.8467 66.5338 57.4031 66.6723C58.4446 65.4286 59.9118 63.2214 59.9118 60.6568C59.9118 60.3698 59.8928 60.0875 59.8588 59.8103C61.6371 58.7115 63.82 58.5145 64.8231 58.4863C64.7899 59.7074 64.5079 62.6756 62.6408 64.5427ZM60.775 55.7807C60.9517 56.2426 61.2002 56.984 61.3664 57.8623C60.7827 58.0438 60.1847 58.2836 59.608 58.6003C59.4242 57.9681 59.1709 57.3753 58.8862 56.8339C59.6243 56.3308 60.3238 55.9821 60.775 55.7807ZM56.0006 54.8313C56.7315 55.6033 58.2638 57.4432 58.6499 59.647C58.65 59.6473 58.65 59.6476 58.6502 59.6481C58.7077 59.9769 58.7399 60.314 58.7399 60.6568C58.7399 63.2881 56.8402 65.5917 56 66.4816C55.1599 65.5917 53.26 63.2881 53.26 60.6568C53.26 58.0247 55.1612 55.7203 56.0006 54.8313ZM51.2249 55.7807C51.6761 55.9823 52.3757 56.331 53.1137 56.834C52.8289 57.3753 52.5756 57.9681 52.3919 58.6003C51.8151 58.2836 51.2171 58.0438 50.6335 57.8623C50.7997 56.984 51.0484 56.2425 51.2249 55.7807ZM52.1411 59.8103C52.107 60.0875 52.0883 60.3698 52.0883 60.6568C52.0883 63.2229 53.5569 65.431 54.5985 66.6745C53.1568 66.5378 50.8885 66.0721 49.3589 64.5427C47.4976 62.6814 47.2128 59.7076 47.1777 58.4854C48.18 58.5125 50.3584 58.7078 52.1411 59.8103ZM47.4232 67.3077C47.8179 66.9501 48.4805 66.4201 49.2976 66.0325C51.0028 67.3028 53.1091 67.7174 54.5089 67.8465C54.2189 68.0615 53.8789 68.2846 53.5018 68.4808C53.4808 68.49 53.4605 68.5007 53.441 68.5121C52.8063 68.8339 52.0709 69.0761 51.2933 69.0761C49.6093 69.0761 48.1115 67.9295 47.4232 67.3077ZM55.9991 71.9952C55.5288 71.4764 54.7605 70.4962 54.4126 69.3149C55.0999 68.9108 55.6478 68.4575 55.9999 68.1335C56.3519 68.4575 56.8998 68.9108 57.5869 69.3147C57.2395 70.4916 56.4694 71.4749 55.9991 71.9952ZM60.7066 69.0761C59.4435 69.0761 58.2853 68.4311 57.4946 67.8461C58.8945 67.7167 60.9986 67.3016 62.7021 66.0327C63.5162 66.4192 64.1809 66.951 64.577 67.3091C63.8907 67.9314 62.398 69.0761 60.7066 69.0761Z" fill="#C0385C"/>
</g>
<g clip-path="url(#clip1)">
<path d="M67.8871 82.6354L67.5644 82.7403C66.8201 81.3538 65.2008 80.5658 63.786 80.9859C63.7814 80.9873 63.7769 80.9886 63.7724 80.9901L63.0923 81.2107C62.5201 80.4988 61.7404 79.9826 60.8616 79.7338C59.9827 79.485 59.0482 79.5159 58.1877 79.8222L54.7444 80.9538L50.5796 80.1938C49.6717 80.0269 48.8129 79.6579 48.0669 79.1143L47.5467 78.7345C46.0766 77.655 44.3365 77.0035 42.519 76.852C40.7015 76.7005 38.8776 77.055 37.2491 77.8762C37.2353 77.8832 37.2218 77.8903 37.2086 77.8985L35.6079 78.8734C35.0243 79.2285 29.3416 81.0062 25.8967 82.0434C25.8259 82.0647 25.7601 82.0997 25.7029 82.1465C25.6457 82.1932 25.5982 82.2508 25.5633 82.3158C25.5283 82.3809 25.5065 82.4522 25.4991 82.5257C25.4917 82.5992 25.4989 82.6735 25.5202 82.7442C25.5415 82.8149 25.5765 82.8808 25.6232 82.938C25.67 82.9952 25.7275 83.0426 25.7926 83.0776C25.8577 83.1125 25.929 83.1343 26.0025 83.1417C26.076 83.1491 26.1502 83.142 26.221 83.1207C27.7319 82.6658 35.3135 80.3696 36.1927 79.8343L37.7738 78.8715C39.216 78.149 40.8297 77.8387 42.437 77.9747C44.0443 78.1108 45.5829 78.688 46.8831 79.6427L47.4032 80.0227C48.2863 80.6662 49.3029 81.1029 50.3776 81.3005L55.91 82.3101C56.753 82.4651 57.5138 82.9138 58.0573 83.5765C58.6008 84.2392 58.8919 85.0731 58.879 85.9301L54.8195 84.9982C53.3777 84.6676 51.9089 84.469 50.4311 84.4051C50.3568 84.4011 50.2825 84.4118 50.2124 84.4368C50.1423 84.4617 50.0778 84.5002 50.0228 84.5502C49.9677 84.6002 49.9231 84.6606 49.8915 84.728C49.8599 84.7953 49.842 84.8683 49.8388 84.9426C49.8356 85.0169 49.8472 85.0911 49.8729 85.1609C49.8986 85.2307 49.9378 85.2948 49.9884 85.3493C50.039 85.4038 50.0999 85.4478 50.1676 85.4786C50.2353 85.5095 50.3084 85.5266 50.3827 85.529C51.7921 85.5899 53.193 85.7793 54.5679 86.0947L59.2479 87.1695C59.322 87.1865 59.3988 87.1883 59.4737 87.1748C59.5485 87.1613 59.6199 87.1328 59.6834 87.0909C59.7469 87.049 59.8012 86.9947 59.8431 86.9313C59.8851 86.8678 59.9137 86.7965 59.9272 86.7217C59.948 86.6081 59.963 86.4949 59.9753 86.3819L60.7266 86.1456L68.2354 83.7054C68.8394 83.508 69.4924 83.5204 70.0886 83.7404C70.6848 83.9604 71.1893 84.3752 71.5204 84.9176L55.8993 91.9156C53.9119 92.472 51.7991 92.3828 49.8657 91.6608L41.8468 88.6185C40.989 88.2325 40.0162 88.1884 39.127 88.4951L29.9462 91.7299C29.8762 91.7542 29.8117 91.792 29.7564 91.8413C29.7011 91.8906 29.6561 91.9504 29.6239 92.0171C29.5917 92.0839 29.5731 92.1563 29.569 92.2303C29.5649 92.3043 29.5755 92.3783 29.6001 92.4482C29.6247 92.5181 29.6629 92.5824 29.7125 92.6375C29.762 92.6926 29.822 92.7373 29.8889 92.7692C29.9558 92.801 30.0283 92.8193 30.1023 92.8231C30.1763 92.8268 30.2503 92.8159 30.3201 92.7909L39.4959 89.5576C40.1185 89.3439 40.7994 89.377 41.3984 89.6501C41.4093 89.6552 41.4204 89.6598 41.4316 89.6639L49.4682 92.7131C51.6409 93.5247 54.0161 93.6204 56.2471 92.9862C56.2727 92.9789 56.2978 92.9698 56.3221 92.9589L72.5086 85.7076C72.6395 85.649 72.743 85.5427 72.7981 85.4103C72.8531 85.2779 72.8556 85.1295 72.8049 84.9954C72.4468 84.0444 71.7357 83.2683 70.8196 82.8286C69.9034 82.389 68.853 82.3198 67.8871 82.6354V82.6354ZM58.546 80.8887L58.5605 80.8837C59.131 80.6795 59.7469 80.6376 60.3397 80.7626C60.9325 80.8876 61.479 81.1747 61.9185 81.5918L58.721 82.6291C58.2204 82.0929 57.6017 81.6807 56.9141 81.4253L58.546 80.8887ZM60.3838 85.0741L59.9568 85.2084C59.8761 84.6394 59.6926 84.0898 59.4152 83.5865L64.1123 82.0626C64.9498 81.8179 65.9391 82.2832 66.4689 83.0965L60.3838 85.0741Z" fill="#F6F7F6"/>
</g>
<g clip-path="url(#clip2)">
<path d="M49.88 41.0999L50.2123 41.0306C50.8019 42.4896 52.3263 43.4484 53.7784 43.184C53.783 43.1831 53.7877 43.1823 53.7923 43.1813L54.4923 43.0357C54.984 43.8054 55.7032 44.403 56.5499 44.7455C57.3966 45.0881 58.329 45.1586 59.2176 44.9474L62.7633 44.1954L66.8212 45.4022C67.7057 45.6665 68.5194 46.1263 69.2022 46.7475L69.6782 47.1814C71.0226 48.4138 72.6819 49.25 74.4723 49.5975C76.2627 49.945 78.1143 49.7902 79.8222 49.1503C79.8366 49.1448 79.8508 49.1393 79.8648 49.1325L81.5617 48.3368C82.1804 48.047 88.0222 46.8954 91.5592 46.2375C91.6319 46.224 91.7011 46.1963 91.763 46.156C91.825 46.1158 91.8784 46.0637 91.9202 46.0028C91.962 45.9419 91.9914 45.8733 92.0067 45.8011C92.022 45.7288 92.0229 45.6542 92.0094 45.5816C91.9959 45.509 91.9682 45.4397 91.928 45.3778C91.8877 45.3159 91.8356 45.2625 91.7747 45.2207C91.7138 45.1789 91.6453 45.1495 91.573 45.1342C91.5007 45.1189 91.4262 45.1179 91.3535 45.1314C89.8022 45.42 82.0165 46.8813 81.0844 47.3182L79.4084 48.104C77.8964 48.666 76.2586 48.7997 74.6755 48.4903C73.0923 48.1809 71.6254 47.4404 70.4362 46.3505L69.9604 45.9164C69.1521 45.181 68.1889 44.6367 67.1419 44.3238L61.7514 42.7208C60.9302 42.4754 60.2225 41.947 59.754 41.2293C59.2854 40.5116 59.0864 39.6511 59.1921 38.8005L63.1267 40.1667C64.5242 40.6516 65.9629 41.0081 67.4251 41.2318C67.4985 41.2438 67.5735 41.2411 67.6459 41.224C67.7183 41.2068 67.7865 41.1754 67.8467 41.1317C67.9069 41.088 67.9578 41.0327 67.9965 40.9692C68.0351 40.9057 68.0608 40.8351 68.0721 40.7616C68.0833 40.688 68.0798 40.613 68.0619 40.5408C68.0439 40.4687 68.0118 40.4008 67.9674 40.3411C67.9231 40.2814 67.8673 40.2311 67.8033 40.1931C67.7394 40.1551 67.6685 40.1302 67.5949 40.1197C66.2004 39.9065 64.8283 39.5664 63.4956 39.1039L58.9596 37.5284C58.8878 37.5035 58.8116 37.4934 58.7357 37.4987C58.6599 37.504 58.5859 37.5247 58.5182 37.5594C58.4505 37.5941 58.3906 37.6422 58.3421 37.7008C58.2935 37.7593 58.2574 37.8271 58.2358 37.9C58.2029 38.0106 58.1757 38.1216 58.1511 38.2326L57.3787 38.3861L49.6498 39.9985C49.0279 40.1292 48.3801 40.0462 47.8112 39.7629C47.2424 39.4796 46.7858 39.0126 46.5154 38.4375L62.8027 33.1731C64.8387 32.8352 66.9294 33.1528 68.7732 34.08L76.4153 37.9731C77.2262 38.4497 78.1885 38.599 79.1058 38.3905L88.5829 36.1693C88.6551 36.1527 88.7233 36.1221 88.7837 36.0791C88.844 36.0361 88.8952 35.9815 88.9344 35.9187C88.9736 35.8558 89 35.7858 89.0121 35.7127C89.0242 35.6396 89.0217 35.5648 89.0048 35.4927C88.9879 35.4206 88.9569 35.3525 88.9136 35.2923C88.8703 35.2322 88.8155 35.1812 88.7525 35.1423C88.6894 35.1034 88.6193 35.0774 88.5461 35.0656C88.473 35.0539 88.3982 35.0568 88.3262 35.074L78.8541 37.2942C78.212 37.4393 77.5387 37.3326 76.9728 36.9961C76.9625 36.9899 76.952 36.9842 76.9413 36.9788L69.2823 33.077C67.2104 32.0347 64.8595 31.6823 62.573 32.071C62.5467 32.0755 62.5208 32.0819 62.4954 32.0901L45.6186 37.5451C45.4822 37.5892 45.3677 37.6837 45.2986 37.8093C45.2295 37.935 45.211 38.0822 45.2469 38.221C45.4998 39.2052 46.1227 40.0538 46.9858 40.5901C47.8489 41.1264 48.8856 41.309 49.88 41.0999V41.0999ZM58.977 43.8483L58.962 43.8517C58.3728 43.9929 57.756 43.9678 57.1802 43.7793C56.6044 43.5908 56.0922 43.2463 55.7005 42.784L58.9916 42.0992C59.4311 42.6865 60.0015 43.1633 60.6574 43.4917L58.977 43.8483ZM57.6034 39.4884L58.0425 39.4012C58.061 39.9756 58.1839 40.5418 58.4052 41.0722L53.5706 42.0783C52.7115 42.2308 51.7785 41.6611 51.3398 40.7952L57.6034 39.4884Z" fill="#F6F7F6"/>
</g>
<defs>
<linearGradient id="paint0_linear" x1="56" y1="72.3801" x2="56" y2="119.38" gradientUnits="userSpaceOnUse">
<stop offset="0.635417" stop-color="#F6F7F6"/>
<stop offset="0.895833" stop-color="#F6F7F6"/>
</linearGradient>
<linearGradient id="paint1_linear" x1="56" y1="7.38013" x2="56" y2="119.38" gradientUnits="userSpaceOnUse">
<stop stop-color="white"/>
<stop offset="0.161458" stop-color="white"/>
<stop offset="0.359375" stop-color="white" stop-opacity="0"/>
</linearGradient>
<clipPath id="clip0">
<rect width="20" height="20" fill="white" transform="translate(46 53.3801)"/>
</clipPath>
<clipPath id="clip1">
<rect width="48" height="48" fill="white" transform="translate(31.6172 46.3801) rotate(10.3423)"/>
</clipPath>
<clipPath id="clip2">
<rect width="48" height="48" fill="white" transform="translate(82.0088 81.071) rotate(-163.438)"/>
</clipPath>
</defs>
</svg>
