<svg width="353" height="347" viewBox="0 0 353 347" fill="none" xmlns="http://www.w3.org/2000/svg">
<path d="M316.483 152.154H303.423C300.032 152.154 296.708 151.21 293.823 149.427C290.939 147.644 288.608 145.094 287.092 142.061L279.966 127.809H316.483V152.154Z" fill="#EA9D2D"/>
<path d="M316.483 152.154H329.543C332.934 152.154 336.258 151.21 339.142 149.427C342.026 147.644 344.357 145.094 345.874 142.061L353 127.809H316.483V152.154Z" fill="#EA9D2D"/>
<path d="M316.483 103.465L308.399 115.59C305.733 119.59 304.31 124.289 304.31 129.095V129.898C304.31 133.095 304.94 136.261 306.163 139.215C307.387 142.169 309.18 144.852 311.441 147.113L316.483 152.155L321.524 147.113C323.785 144.852 325.578 142.169 326.802 139.215C328.025 136.261 328.655 133.095 328.655 129.898V129.095C328.655 124.289 327.233 119.59 324.567 115.59L316.483 103.465Z" fill="#FBB540"/>
<path d="M115.638 279.966L127.81 267.793L133.897 249.535H219.103L225.19 267.793L237.362 279.966L249.535 289.704L176.5 328.656L103.466 292.138L115.638 279.966Z" fill="#C0385C"/>
<path d="M173.716 310.397L170.65 325.726L103.466 292.138L115.638 279.966L118.331 277.272L173.716 310.397Z" fill="#CF5252"/>
<path d="M249.534 289.703L185.302 323.961L182.586 310.396L235.909 278.512L237.362 279.965L249.534 289.703Z" fill="#CF5252"/>
<path d="M127.81 136.178L114.733 140.439C111.199 142.205 108.089 144.716 105.617 147.798C103.145 150.879 101.368 154.46 100.41 158.292L85.2069 219.103L36.5172 249.534L18.2586 243.448L0 249.534L6.08621 279.965L96.671 251.657C98.8197 250.986 100.811 249.888 102.525 248.429C104.24 246.97 105.642 245.18 106.649 243.167L127.81 200.844V136.178Z" fill="#FDC9A6"/>
<path d="M225.19 136.178L238.267 140.435C241.801 142.202 244.911 144.712 247.383 147.794C249.855 150.876 251.632 154.456 252.59 158.289L267.793 219.103L316.483 249.534L334.741 243.448L353 249.534L346.914 279.965L256.329 251.657C254.18 250.986 252.189 249.888 250.475 248.429C248.76 246.97 247.358 245.18 246.351 243.167L225.19 200.844V136.178Z" fill="#FDC9A6"/>
<path d="M194.759 30.431L192.637 19.8235C191.519 14.2335 188.499 9.20348 184.09 5.58927C179.682 1.97506 174.157 -5.20778e-05 168.456 1.02987e-09C161.916 0.000147819 155.644 2.59825 151.019 7.2228C143.661 14.5807 137.824 23.3157 133.842 32.9293C129.86 42.5429 127.81 52.8467 127.81 63.2524V64.9702C127.811 71.1954 126.274 77.3244 123.336 82.813C120.399 88.3015 116.152 92.98 110.972 96.4329L109.552 97.3793L114.269 99.7377C120.231 102.719 126.876 104.072 133.529 103.658C140.183 103.243 146.609 101.077 152.155 97.3793L194.759 30.431Z" fill="#683B0D"/>
<path d="M200.845 129.027L194.759 127.81V103.465H158.241V127.81L152.155 129.027V158.241L176.5 176.5L200.845 158.241V129.027Z" fill="#FDC9A6"/>
<path d="M194.759 103.465V109.551C189.491 113.502 183.084 115.638 176.5 115.638C169.916 115.638 163.509 113.502 158.241 109.551V103.465H194.759Z" fill="#FDC9A6"/>
<path d="M200.845 129.027L225.19 136.178V164.327C228.722 169.626 230.478 175.912 230.202 182.275C229.925 188.637 227.632 194.748 223.654 199.721L213.017 213.016H139.983L129.346 199.721C125.368 194.748 123.075 188.637 122.798 182.275C122.522 175.912 124.278 169.626 127.81 164.327V136.178L152.155 129.027V158.24L176.5 176.499L200.845 158.24V129.027Z" fill="#F1746A"/>
<path d="M139.983 213.017V223.374C139.983 228.607 139.139 233.807 137.484 238.771L133.896 249.534H219.103L215.515 238.771C213.861 233.807 213.017 228.607 213.017 223.374V213.017H139.983Z" fill="#FDC9A6"/>
<path d="M249.535 289.704L237.362 279.966L235.909 278.513L182.586 310.397H173.716L118.331 277.272L115.638 279.966L103.466 292.138L170.65 322.569H185.302L249.535 289.704Z" fill="#C0385C"/>
<path d="M194.759 103.465V109.551C189.491 113.502 183.084 115.638 176.5 115.638C169.916 115.638 163.509 113.502 158.241 109.551V103.465H194.759Z" fill="#F6BB92"/>
<path d="M36.5172 158.242H23.457C20.0662 158.242 16.7424 157.298 13.858 155.515C10.9736 153.733 8.64259 151.182 7.12619 148.149L0 133.898H36.5172V158.242Z" fill="#029532"/>
<path d="M36.5172 158.242H49.5774C52.9682 158.242 56.292 157.298 59.1764 155.515C62.0608 153.733 64.3918 151.182 65.9082 148.149L73.0344 133.898H36.5172V158.242Z" fill="#029532"/>
<path d="M188.672 346.914L295.197 303.407C297.96 301.945 300.4 299.942 302.373 297.517C304.346 295.093 305.812 292.297 306.683 289.295C307.554 286.293 307.812 283.146 307.443 280.042C307.074 276.938 306.084 273.94 304.533 271.226C302.947 268.45 300.807 266.029 298.245 264.115C295.684 262.201 292.756 260.834 289.644 260.099C286.532 259.364 283.302 259.277 280.155 259.843C277.008 260.409 274.01 261.617 271.35 263.39L182.586 316.483L188.672 346.914Z" fill="#C0385C"/>
<path d="M167.628 346.914L61.1032 303.407C58.3407 301.945 55.9003 299.942 53.9272 297.517C51.9541 295.093 50.4885 292.297 49.6175 289.295C48.7466 286.293 48.4881 283.146 48.8573 280.042C49.2266 276.938 50.2161 273.94 51.767 271.226C53.3533 268.45 55.4937 266.029 58.0551 264.115C60.6165 262.201 63.5442 260.834 66.6563 260.099C69.7684 259.364 72.9984 259.277 76.1455 259.843C79.2927 260.409 82.2897 261.617 84.9505 263.39L173.714 316.483L167.628 346.914Z" fill="#C0385C"/>
<path d="M182.586 316.483L152.155 322.569L133.896 316.483L121.724 328.656L127.81 346.914H188.672L182.586 316.483Z" fill="#FDC9A6"/>
<path d="M206.931 66.9485V79.1209C206.931 87.1918 203.725 94.932 198.018 100.639C192.311 106.346 184.571 109.552 176.5 109.552C168.429 109.552 160.689 106.346 154.982 100.639C149.275 94.932 146.069 87.1918 146.069 79.1209V54.7761C146.066 51.5458 146.578 48.3356 147.585 45.2664L206.931 66.9485Z" fill="#FDC9A6"/>
<path d="M206.931 54.7756V66.948C187.178 66.948 167.958 60.5413 152.155 48.6894L147.591 45.2659C149.85 38.3903 154.487 32.5453 160.668 28.7798C166.849 25.0144 174.169 23.5751 181.315 24.7204C188.462 25.8656 194.966 29.5204 199.66 35.0287C204.355 40.537 206.933 47.5381 206.931 54.7756V54.7756Z" fill="#683B0D"/>
<path d="M36.5172 109.552L28.4332 121.677C25.7672 125.676 24.3446 130.375 24.3448 135.182V135.985C24.3448 139.182 24.9745 142.348 26.198 145.302C27.4215 148.255 29.2148 150.939 31.4755 153.2L36.5172 158.241L41.5589 153.2C43.8196 150.939 45.6129 148.255 46.8364 145.302C48.0599 142.348 48.6896 139.182 48.6896 135.985V135.182C48.6898 130.375 47.2672 125.676 44.6012 121.677L36.5172 109.552Z" fill="#02A437"/>
</svg>
