<svg width="112" height="112" viewBox="0 0 112 112" fill="none" xmlns="http://www.w3.org/2000/svg">
<path d="M102.156 60.8247C102.87 57.5312 103.25 54.1485 103.25 50.75C103.25 44.1175 101.843 37.5182 99.162 31.5H103.25V17.7118L107.497 20.685L109.503 17.8167L91 4.86325L81.8755 11.2507C74.1808 6.195 65.2803 3.5 56 3.5C46.984 3.5 38.3268 6.04275 30.7825 10.822C27.9843 6.42775 23.0825 3.5 17.5 3.5C8.81651 3.5 1.75001 10.5648 1.75001 19.25C1.75001 25.9403 5.95001 31.654 11.844 33.9325C9.79826 39.298 8.75001 44.9453 8.75001 50.75C8.75001 54.922 9.29426 59.0257 10.36 63.0017C6.79876 63.0088 3.26376 65.5638 2.13501 68.9518C1.00276 72.3485 2.34676 75.7925 5.82401 78.4C12.6035 83.4837 14.5408 85.2653 14.56 85.2828L15.7535 86.3835L16.9418 85.2828C16.954 85.2705 17.9008 84.4025 20.7533 82.166C23.366 85.0955 26.3183 87.6803 29.5663 89.8783C26.579 94.1955 24.5 100.184 24.5 108.5V110.25H56H87.5V108.5C87.5 100.195 85.4263 94.2095 82.446 89.894C84.5635 88.4607 86.5708 86.8595 88.4275 85.106C90.6623 86.6162 93.3555 87.5 96.25 87.5C103.969 87.5 110.25 81.2192 110.25 73.5C110.25 67.893 106.929 63.0578 102.156 60.8247ZM92.75 28H89.25V24.5H92.75V28ZM99.75 15.2617V28H96.25V21H85.75V28H82.25V15.2617L91 9.13675L99.75 15.2617ZM5.25001 19.25C5.25001 12.4967 10.745 7 17.5 7C24.255 7 29.75 12.4967 29.75 19.25C29.75 26.0033 24.255 31.5 17.5 31.5C10.745 31.5 5.25001 26.0033 5.25001 19.25ZM15.75 81.6953C14.5023 80.6557 12.1223 78.7483 7.92401 75.6018C5.66476 73.906 4.81076 71.9915 5.45476 70.0595C6.11976 68.0628 8.27926 66.5 10.3635 66.5C11.004 66.5472 12.9115 67.9613 14.364 69.4645L15.5803 70.721L16.8385 69.51C18.4275 67.9805 20.475 66.5455 21.126 66.5C23.219 66.5 25.3803 68.0628 26.0453 70.0578C26.6893 71.9898 25.8353 73.9043 23.576 75.6C19.3778 78.7483 16.9978 80.6557 15.75 81.6953ZM77 106.75V94.5H73.5V106.75H56H40.25V94.5H36.75V106.75H28.035C28.658 91.14 37.6005 85.4805 44.086 83.4243L48.4925 94.4388L56 85.0518L63.5093 94.4388L67.9228 83.405C74.4083 85.442 83.3455 91.0875 83.965 106.75H77ZM38.5 62.5975C37.6163 62.1758 36.75 61.3165 36.75 59.5C36.75 57.6975 37.6058 56.8365 38.5 56.4113V62.5975ZM35.3623 54.4005L33.7243 48.6675C33.5353 48.0025 33.67 47.2745 34.083 46.7232L36.9005 42.9678C38.0275 41.4662 38.3443 39.5045 37.7423 37.695C37.366 36.5662 37.9155 35.357 38.9918 34.9405C42.441 33.607 48.461 32.2263 57.5558 33.2413C67.8003 34.3788 73.3898 37.0353 75.8083 38.5175C76.503 38.9427 76.8915 39.732 76.8215 40.5755L75.7278 53.704C75.0155 53.249 74.2578 52.934 73.5 52.7467V47.25C73.5 47.0452 73.3863 42.399 65.7038 42.035C65.3538 40.5457 64.5488 39.3978 64.4 39.2L61.6 41.3C61.9115 41.7165 62.6465 43.1007 62.2545 43.8865C62.0638 44.2627 61.054 45.5 56 45.5C50.9583 45.5 49.9398 44.268 49.749 43.89C49.364 43.1305 50.0255 41.811 50.4053 41.293L49 40.25L47.6 39.2C47.4513 39.3978 46.6463 40.544 46.2963 42.035C38.6138 42.399 38.5 47.0452 38.5 47.25V52.745C37.4045 53.0145 36.2933 53.5483 35.3623 54.4005ZM65.625 49C62.2073 49 59.3215 51.2015 58.233 54.25H53.7653C52.6785 51.2015 49.791 49 46.3733 49C44.7528 49 43.2478 49.4935 41.9948 50.3353V47.348C42.077 46.7425 43.1935 45.6418 46.662 45.5228C47.8853 47.859 50.9373 49 56 49C61.0628 49 64.1148 47.859 65.338 45.5228C68.8065 45.6418 69.923 46.7373 70 47.25V50.3335C68.747 49.4935 67.2438 49 65.625 49ZM70 56.875C70 59.2882 68.0365 61.25 65.625 61.25C63.2135 61.25 61.25 59.2882 61.25 56.875C61.25 54.4618 63.2135 52.5 65.625 52.5C68.0365 52.5 70 54.4618 70 56.875ZM50.75 56.875C50.75 59.2882 48.7865 61.25 46.375 61.25C43.9635 61.25 42 59.2882 42 56.875C42 54.4618 43.9635 52.5 46.375 52.5C48.7865 52.5 50.75 54.4618 50.75 56.875ZM73.5 56.4025C74.3838 56.8242 75.25 57.6835 75.25 59.5C75.25 61.3042 74.3925 62.1652 73.5 62.5905V56.4025ZM46.375 64.75C50.4175 64.75 53.7198 61.677 54.1608 57.75H57.8375C58.2785 61.677 61.5808 64.75 65.6233 64.75C67.242 64.75 68.747 64.2565 69.9983 63.4165V66.4475C69.9983 66.5 69.496 71.75 56 71.75C42.504 71.75 42.0018 66.5 42 66.5V63.4165C43.2513 64.2565 44.7563 64.75 46.375 64.75ZM61.9045 82.2728C62.4733 82.3043 63.3693 82.383 64.4858 82.5738L62.4908 87.563L59.521 83.8512C60.3155 83.4855 61.1135 82.9675 61.9045 82.2728ZM56 75.25C57.2583 75.25 58.4168 75.201 59.5 75.1188V79.7353C56.5075 82.25 53.6603 80.6068 52.5 79.7038V75.1188C53.5833 75.201 54.7418 75.25 56 75.25ZM50.106 82.2745C50.7588 82.8187 51.5883 83.3543 52.5368 83.7778L49.5093 87.5612L47.5195 82.5843C48.6395 82.39 49.5373 82.3077 50.106 82.2745ZM63 78.8778V74.6813C73.3565 72.7895 73.5 66.7993 73.5 66.4983V66.2533C75.999 65.6373 78.6678 63.679 78.7343 59.6418H78.743L80.3093 40.8608C80.4895 38.6943 79.4658 36.6502 77.6388 35.5285C74.3803 33.5317 68.3165 30.9102 57.9443 29.757C48.1495 28.6685 41.545 30.198 37.7335 31.6715C34.909 32.7617 33.4548 35.8925 34.433 38.8237C34.664 39.5168 34.5398 40.2798 34.1023 40.8625L31.2848 44.618C30.219 46.0408 29.8725 47.9132 30.3608 49.623L33.292 59.8797C33.4653 63.7455 36.057 65.6478 38.5018 66.2515V66.5C38.5018 66.801 38.6453 72.7912 49.0018 74.683V78.8795C45.5455 79.268 37.6705 80.8395 31.7713 87.15C28.735 85.1253 25.977 82.7347 23.5323 80.024C24.1885 79.5235 24.899 78.988 25.6795 78.4017C29.1568 75.7943 30.5008 72.3503 29.3685 68.9535C28.238 65.562 24.696 63.0035 21.1295 63.0035C19.383 63.0035 17.1833 64.568 15.666 65.8577C15.3598 65.5812 15.0185 65.2943 14.6615 65.0125C13.0795 60.4328 12.25 55.6447 12.25 50.75C12.25 45.2427 13.2685 39.8913 15.2548 34.8215C15.9898 34.9265 16.7353 35 17.5 35C26.1835 35 33.25 27.9352 33.25 19.25C33.25 17.4038 32.914 15.638 32.3278 13.9895C39.3855 9.43075 47.5213 7 56 7C64.1235 7 71.9373 9.21725 78.7885 13.412L72.4973 17.815L74.5028 20.6833L78.75 17.7118V31.5H95.277C98.1943 37.45 99.75 44.0755 99.75 50.75C99.75 53.7845 99.421 56.8015 98.8068 59.745C97.9755 59.591 97.1233 59.5 96.25 59.5C88.5308 59.5 82.25 65.7808 82.25 73.5C82.25 77.0525 83.5905 80.29 85.7798 82.761C84.0508 84.3692 82.1853 85.8288 80.2218 87.1377C74.3243 80.8377 66.4545 79.2663 63 78.8778ZM96.25 84C90.4593 84 85.75 79.2907 85.75 73.5C85.75 67.7093 90.4593 63 96.25 63C102.041 63 106.75 67.7093 106.75 73.5C106.75 79.2907 102.041 84 96.25 84Z" fill="black"/>
<path d="M62.2213 67.9559L60.2805 65.0439C56.1015 67.8299 51.8928 65.1542 51.7143 65.0387L49.7805 67.9559C49.9485 68.0662 52.633 69.8162 56.2065 69.8162C58.0475 69.8179 60.1283 69.3507 62.2213 67.9559Z" fill="black"/>
<path d="M98 68.25H94.5V71.75H91V75.25H94.5V78.75H98V75.25H101.5V71.75H98V68.25Z" fill="black"/>
<path d="M19.25 29.75V26.25H24.5V17.5H14V15.75H24.5V12.25H19.25V8.75H15.75V12.25H10.5V21H21V22.75H10.5V26.25H15.75V29.75H19.25Z" fill="black"/>
</svg>
