<svg width="26" height="26" viewBox="0 0 26 26" fill="none" xmlns="http://www.w3.org/2000/svg">
<path d="M18.962 0H7.03795C3.15716 0 0 3.15716 0 7.03795V18.9622C0 22.8428 3.15716 26 7.03795 26H18.9622C22.8428 26 26 22.8428 26 18.9622V7.03795C26 3.15716 22.8428 0 18.962 0V0ZM24.4757 18.9622C24.4757 22.0023 22.0023 24.4757 18.962 24.4757H7.03795C3.99763 24.4757 1.52423 22.0023 1.52423 18.9622V7.03795C1.52423 3.99763 3.99763 1.52423 7.03795 1.52423H18.9622C22.0023 1.52423 24.4757 3.99763 24.4757 7.03795V18.9622Z" fill="#C0385C"/>
<path d="M13 5.89075C9.07997 5.89075 5.89087 9.07984 5.89087 12.9999C5.89087 16.92 9.07997 20.1091 13 20.1091C16.9201 20.1091 20.1092 16.92 20.1092 12.9999C20.1092 9.07984 16.9201 5.89075 13 5.89075ZM13 18.5848C9.92063 18.5848 7.4151 16.0795 7.4151 12.9999C7.4151 9.92051 9.92063 7.41498 13 7.41498C16.0796 7.41498 18.585 9.92051 18.585 12.9999C18.585 16.0795 16.0796 18.5848 13 18.5848Z" fill="#C0385C"/>
<path d="M20.2791 3.36597C19.1207 3.36597 18.1785 4.30839 18.1785 5.46664C18.1785 6.62509 19.1207 7.56751 20.2791 7.56751C21.4376 7.56751 22.38 6.62509 22.38 5.46664C22.38 4.3082 21.4376 3.36597 20.2791 3.36597ZM20.2791 6.04309C19.9614 6.04309 19.7027 5.78442 19.7027 5.46664C19.7027 5.14866 19.9614 4.89019 20.2791 4.89019C20.5971 4.89019 20.8558 5.14866 20.8558 5.46664C20.8558 5.78442 20.5971 6.04309 20.2791 6.04309Z" fill="#C0385C"/>
</svg>
