<svg width="112" height="124" viewBox="0 0 112 124" fill="none" xmlns="http://www.w3.org/2000/svg">
<circle cx="56" cy="64" r="55.9" stroke="url(#paint0_linear)" stroke-width="0.2" stroke-linejoin="round"/>
<circle cx="56" cy="64" r="55.9" stroke="url(#paint1_linear)" stroke-width="0.2" stroke-linejoin="round"/>
<path d="M35.31 121.218C34.7313 121.218 34.2973 121.12 34.008 120.924C33.728 120.737 33.5833 120.434 33.574 120.014C33.574 119.921 33.6253 119.874 33.728 119.874C33.784 119.874 33.91 119.897 34.106 119.944C34.3113 119.981 34.6427 120 35.1 120C36.164 120 37.1253 119.855 37.984 119.566C38.852 119.267 39.5333 118.88 40.028 118.404C40.5227 117.928 40.77 117.424 40.77 116.892C40.77 116.239 40.4293 115.8 39.748 115.576C39.0667 115.343 38.1987 115.226 37.144 115.226L36.108 115.24C35.968 115.716 35.842 116.155 35.73 116.556C35.6273 116.957 35.534 117.307 35.45 117.606C35.1793 118.623 34.9927 119.309 34.89 119.664C34.61 119.664 34.3673 119.589 34.162 119.44C33.9567 119.291 33.854 119.109 33.854 118.894C33.854 118.726 33.9007 118.511 33.994 118.25L34.05 118.082L34.232 117.522C35.268 114.293 36.1547 111.964 36.892 110.536C36.4253 110.639 35.9447 110.825 35.45 111.096C35.4033 111.115 35.338 111.147 35.254 111.194C35.17 111.231 35.1093 111.25 35.072 111.25C34.9787 111.25 34.862 111.185 34.722 111.054C34.582 110.914 34.512 110.797 34.512 110.704C35.156 110.443 35.73 110.247 36.234 110.116C36.7473 109.985 37.3493 109.92 38.04 109.92C38.964 109.92 39.7807 110.079 40.49 110.396C41.1993 110.713 41.554 111.315 41.554 112.202C41.554 112.921 41.2693 113.495 40.7 113.924C40.14 114.344 39.4493 114.652 38.628 114.848C39.6827 114.988 40.448 115.273 40.924 115.702C41.4 116.131 41.638 116.598 41.638 117.102C41.638 117.951 41.2833 118.689 40.574 119.314C39.874 119.939 39.0247 120.411 38.026 120.728C37.0367 121.055 36.1313 121.218 35.31 121.218ZM36.248 114.708C37.4613 114.661 38.4693 114.433 39.272 114.022C40.084 113.602 40.49 112.958 40.49 112.09C40.49 110.97 39.6127 110.41 37.858 110.41C37.3353 111.418 36.7987 112.851 36.248 114.708ZM42.7775 123.92C42.5161 123.92 42.2921 123.841 42.1055 123.682C41.9188 123.533 41.8255 123.309 41.8255 123.01C41.8255 122.646 41.9608 122.315 42.2315 122.016C42.5115 121.717 42.8335 121.465 43.1975 121.26C43.5615 121.055 44.0328 120.817 44.6115 120.546C44.7701 120.145 44.9941 119.417 45.2835 118.362C44.9475 118.838 44.6161 119.211 44.2895 119.482C43.9721 119.753 43.6315 119.888 43.2675 119.888C42.9595 119.888 42.6841 119.795 42.4415 119.608C42.1988 119.421 42.0775 119.127 42.0775 118.726C42.0775 118.409 42.1521 118.007 42.3015 117.522C42.4508 117.027 42.6281 116.598 42.8335 116.234C43.0388 115.861 43.2161 115.674 43.3655 115.674C43.4588 115.674 43.5988 115.725 43.7855 115.828C43.9721 115.921 44.0841 116.024 44.1215 116.136C43.9441 116.379 43.7481 116.785 43.5335 117.354C43.3281 117.923 43.2255 118.371 43.2255 118.698C43.2255 119.043 43.3608 119.216 43.6315 119.216C43.9115 119.216 44.2148 119.053 44.5415 118.726C44.8681 118.399 45.1808 117.998 45.4795 117.522C45.4981 117.457 45.5261 117.303 45.5635 117.06C45.6008 116.817 45.6848 116.607 45.8155 116.43C45.9461 116.243 46.1328 116.15 46.3755 116.15C46.4128 116.15 46.5621 116.169 46.8235 116.206C46.8141 116.439 46.7021 116.948 46.4875 117.732C46.2821 118.516 46.0395 119.281 45.7595 120.028C46.2168 119.841 46.6461 119.557 47.0475 119.174C47.4581 118.791 47.7801 118.287 48.0135 117.662L48.2515 117.858C48.0555 118.502 47.7148 119.043 47.2295 119.482C46.7535 119.921 46.2028 120.28 45.5775 120.56C45.1388 121.596 44.6908 122.413 44.2335 123.01C43.7855 123.617 43.3001 123.92 42.7775 123.92ZM42.6375 123.402C42.8335 123.402 43.0901 123.201 43.4075 122.8C43.7248 122.408 44.0375 121.862 44.3455 121.162C43.8041 121.433 43.3375 121.731 42.9455 122.058C42.5628 122.385 42.3715 122.702 42.3715 123.01C42.3715 123.113 42.3901 123.201 42.4275 123.276C42.4741 123.36 42.5441 123.402 42.6375 123.402ZM51.9917 121.218C51.5623 120.994 51.3477 120.705 51.3477 120.35C51.3477 119.995 51.5343 119.449 51.9077 118.712C52.281 117.965 52.7803 117.111 53.4057 116.15C52.8457 116.113 52.1597 116.094 51.3477 116.094C51.5717 115.487 52.113 115.184 52.9717 115.184C53.1583 115.184 53.5037 115.212 54.0077 115.268C55.053 113.756 56.0283 112.482 56.9337 111.446C57.839 110.41 58.441 109.892 58.7397 109.892C58.9823 109.892 59.2997 110.074 59.6917 110.438C59.505 110.578 59.2297 111.161 58.8657 112.188C58.511 113.205 58.1937 114.325 57.9137 115.548C57.643 116.761 57.5077 117.741 57.5077 118.488C57.5077 118.861 57.545 119.141 57.6197 119.328C57.7037 119.505 57.8297 119.594 57.9977 119.594C58.231 119.594 58.5063 119.426 58.8237 119.09C59.141 118.745 59.4863 118.217 59.8597 117.508L60.1117 117.774C59.813 118.567 59.4303 119.207 58.9637 119.692C58.497 120.168 58.0117 120.406 57.5077 120.406C57.0783 120.406 56.7657 120.219 56.5697 119.846C56.3737 119.473 56.2757 118.936 56.2757 118.236C56.2757 117.779 56.3363 117.2 56.4577 116.5C55.9817 116.425 55.3143 116.337 54.4557 116.234C53.5877 117.774 52.7663 119.435 51.9917 121.218ZM56.5977 115.814C56.7657 115.03 56.985 114.218 57.2557 113.378C57.5263 112.538 57.8017 111.787 58.0817 111.124C57.671 111.451 57.1903 111.992 56.6397 112.748C56.089 113.504 55.5103 114.4 54.9037 115.436L55.9537 115.66C56.2337 115.735 56.4483 115.786 56.5977 115.814ZM64.1868 120.28C63.8321 120.28 63.5568 120.191 63.3608 120.014C63.1648 119.837 63.0667 119.603 63.0667 119.314C63.0667 119.193 63.0854 119.053 63.1228 118.894C63.1694 118.735 63.2161 118.577 63.2628 118.418C63.3934 117.989 63.4588 117.671 63.4588 117.466C63.4588 117.279 63.4121 117.144 63.3188 117.06C63.2254 116.967 63.1088 116.92 62.9688 116.92C62.4741 116.92 61.9748 117.233 61.4708 117.858C60.9668 118.474 60.4254 119.258 59.8468 120.21C59.4454 120.21 59.1421 120.075 58.9367 119.804L59.0627 119.454C59.6134 118.119 59.8888 117.13 59.8888 116.486C59.9634 116.402 60.0708 116.327 60.2108 116.262C60.3508 116.187 60.4861 116.15 60.6168 116.15C60.7754 116.15 60.8968 116.187 60.9808 116.262C61.0648 116.337 61.1068 116.439 61.1068 116.57C61.1068 116.822 61.0274 117.237 60.8688 117.816C61.2888 117.256 61.7228 116.799 62.1708 116.444C62.6281 116.089 63.0761 115.912 63.5148 115.912C63.8881 115.912 64.1774 116.043 64.3828 116.304C64.5881 116.556 64.6908 116.859 64.6908 117.214C64.6908 117.419 64.6628 117.615 64.6068 117.802C64.5601 117.989 64.4854 118.199 64.3828 118.432C64.2241 118.824 64.1448 119.118 64.1448 119.314C64.1448 119.454 64.1774 119.557 64.2428 119.622C64.3081 119.687 64.3874 119.72 64.4808 119.72C64.7888 119.72 65.1201 119.51 65.4748 119.09C65.8388 118.661 66.1654 118.157 66.4548 117.578L66.6928 117.774C66.3568 118.549 65.9834 119.16 65.5728 119.608C65.1714 120.056 64.7094 120.28 64.1868 120.28ZM70.8039 120.28C70.4493 120.28 70.1739 120.191 69.9779 120.014C69.7819 119.837 69.6839 119.603 69.6839 119.314C69.6839 119.193 69.7026 119.053 69.7399 118.894C69.7866 118.735 69.8333 118.577 69.8799 118.418C70.0106 117.989 70.0759 117.671 70.0759 117.466C70.0759 117.279 70.0293 117.144 69.9359 117.06C69.8426 116.967 69.7259 116.92 69.5859 116.92C69.0913 116.92 68.5919 117.233 68.0879 117.858C67.5839 118.474 67.0426 119.258 66.4639 120.21C66.0626 120.21 65.7593 120.075 65.5539 119.804L65.6799 119.454C66.2306 118.119 66.5059 117.13 66.5059 116.486C66.5806 116.402 66.6879 116.327 66.8279 116.262C66.9679 116.187 67.1033 116.15 67.2339 116.15C67.3926 116.15 67.5139 116.187 67.5979 116.262C67.6819 116.337 67.7239 116.439 67.7239 116.57C67.7239 116.822 67.6446 117.237 67.4859 117.816C67.9059 117.256 68.3399 116.799 68.7879 116.444C69.2453 116.089 69.6933 115.912 70.1319 115.912C70.5053 115.912 70.7946 116.043 70.9999 116.304C71.2053 116.556 71.3079 116.859 71.3079 117.214C71.3079 117.419 71.2799 117.615 71.2239 117.802C71.1773 117.989 71.1026 118.199 70.9999 118.432C70.8413 118.824 70.7619 119.118 70.7619 119.314C70.7619 119.454 70.7946 119.557 70.8599 119.622C70.9253 119.687 71.0046 119.72 71.0979 119.72C71.4059 119.72 71.7373 119.51 72.0919 119.09C72.4559 118.661 72.7826 118.157 73.0719 117.578L73.3099 117.774C72.9739 118.549 72.6006 119.16 72.1899 119.608C71.7886 120.056 71.3266 120.28 70.8039 120.28ZM73.4871 120.658C73.1605 120.658 72.8898 120.551 72.6751 120.336C72.4511 120.121 72.3391 119.818 72.3391 119.426C72.3391 118.885 72.5351 118.278 72.9271 117.606C73.3285 116.934 73.8371 116.365 74.4531 115.898C75.0691 115.431 75.6851 115.198 76.3011 115.198C76.7118 115.198 77.0525 115.305 77.3231 115.52C77.6031 115.725 77.7431 115.991 77.7431 116.318C77.7431 116.747 77.4771 116.971 76.9451 116.99C77.2811 117.093 77.4491 117.233 77.4491 117.41C77.4491 117.475 77.4165 117.573 77.3511 117.704C77.2858 117.835 77.2111 117.97 77.1271 118.11C76.9778 118.353 76.8611 118.567 76.7771 118.754C76.6931 118.931 76.6511 119.099 76.6511 119.258C76.6511 119.398 76.6838 119.519 76.7491 119.622C76.8238 119.715 76.9311 119.762 77.0711 119.762C77.3325 119.762 77.6638 119.58 78.0651 119.216C78.4758 118.852 78.8725 118.306 79.2551 117.578L79.5211 117.844C79.1758 118.619 78.7465 119.244 78.2331 119.72C77.7198 120.187 77.2018 120.42 76.6791 120.42C76.3058 120.42 76.0165 120.294 75.8111 120.042C75.6151 119.799 75.5171 119.519 75.5171 119.202C75.0971 119.706 74.7378 120.075 74.4391 120.308C74.1405 120.541 73.8231 120.658 73.4871 120.658ZM73.7811 119.944C74.1078 119.944 74.4858 119.711 74.9151 119.244C75.3538 118.768 75.8485 118.152 76.3991 117.396L76.6791 117.018C76.7071 116.971 76.7445 116.948 76.7911 116.948L76.8471 116.962C76.8938 116.813 76.9171 116.64 76.9171 116.444C76.9171 115.959 76.7211 115.716 76.3291 115.716C75.9185 115.716 75.4891 115.935 75.0411 116.374C74.5931 116.813 74.2151 117.335 73.9071 117.942C73.6085 118.549 73.4591 119.067 73.4591 119.496C73.4591 119.655 73.4825 119.771 73.5291 119.846C73.5851 119.911 73.6691 119.944 73.7811 119.944Z" fill="#C0385C" fill-opacity="0.44"/>
<path d="M15.4778 27.0282C15.1002 27.2267 14.7424 27.3486 14.4046 27.3936C14.0811 27.4432 13.7436 27.3857 13.3919 27.2211C13.2207 26.7809 13.0002 25.9146 12.7305 24.6223C12.4701 23.3251 12.2185 21.9871 11.9756 20.6084C11.7422 19.2248 11.5967 18.295 11.5393 17.819C11.4937 17.4573 11.4906 17.0733 11.53 16.6669C11.5739 16.2462 11.7375 15.9613 12.0207 15.8124C12.1812 15.728 12.3953 15.6998 12.6631 15.7277C12.7768 17.319 13.0172 19.1629 13.3846 21.2595C13.7613 23.3512 14.1635 25.1704 14.5911 26.7171C14.7814 26.6893 15.0323 26.5935 15.3439 26.4297C16.3163 25.9184 17.036 25.0639 17.503 23.8663C17.9744 22.6543 18.1793 21.3595 18.1178 19.9819C18.0512 18.5948 17.7549 17.4009 17.2287 16.4001C16.6528 15.305 15.9521 14.637 15.1265 14.3962C14.2959 14.146 13.4228 14.2617 12.507 14.7432C11.8933 15.0659 11.4006 15.4696 11.0288 15.9543C10.6521 16.4296 10.4238 16.9353 10.3441 17.4713C10.2739 18.0023 10.3653 18.5086 10.6185 18.9901C10.7526 19.245 10.9142 19.4493 11.1034 19.6028C10.7163 19.8064 10.3862 19.8775 10.113 19.8163C9.84422 19.7407 9.63787 19.566 9.49391 19.2922C9.26058 18.8485 9.2372 18.2883 9.42376 17.6118C9.61032 16.9352 9.98542 16.2619 10.549 15.592C11.1221 14.9171 11.8288 14.3587 12.669 13.9169C13.9719 13.2318 15.1213 13.0914 16.1172 13.4957C17.1226 13.895 17.938 14.6894 18.5635 15.879C19.2535 17.1913 19.5615 18.6021 19.4874 20.1113C19.4083 21.6111 19.0046 22.9863 18.2763 24.237C17.553 25.4971 16.6202 26.4275 15.4778 27.0282Z" fill="#282828"/>
<path d="M21.8304 23.0162C21.4263 23.1833 21.0755 23.1725 20.7782 22.9838C20.4907 22.791 20.2655 22.4975 20.1025 22.1032C19.9313 21.6891 19.8378 21.2257 19.822 20.7128C19.816 20.1959 19.8899 19.7325 20.0436 19.3227C20.1974 18.9128 20.4172 18.6488 20.7031 18.5306C20.8213 18.4817 20.9904 18.458 21.2103 18.4594C21.082 17.9815 21.0848 17.5417 21.2189 17.1401C21.3628 16.7343 21.6713 16.4336 22.1444 16.238C22.5387 16.075 22.8764 16.0681 23.1574 16.2174C23.4344 16.3568 23.6462 16.6039 23.7929 16.9588C23.9356 17.3038 24.0049 17.7368 24.001 18.2578C24.007 18.7748 23.9588 19.3141 23.8563 19.8759C23.999 19.8862 24.1493 19.8587 24.307 19.7935C24.583 19.6793 24.842 19.4684 25.0841 19.1605C25.3221 18.8428 25.4475 18.462 25.4602 18.0182L25.8058 18.1003C25.7944 18.6591 25.6622 19.135 25.4093 19.5282C25.1661 19.9173 24.8573 20.1892 24.4827 20.3441C24.256 20.4378 23.9912 20.4954 23.6884 20.5167C23.503 21.1012 23.2505 21.6211 22.9309 22.0765C22.6113 22.5318 22.2444 22.845 21.8304 23.0162ZM23.2252 19.7733C23.3208 19.3067 23.366 18.8436 23.3607 18.3841C23.3652 17.9205 23.3023 17.531 23.1719 17.2156C22.9926 16.7818 22.7649 16.622 22.4889 16.7362C22.3608 16.7891 22.2542 16.9082 22.1692 17.0934C22.0841 17.2786 22.0421 17.498 22.043 17.7515C22.0399 17.9952 22.0913 18.2452 22.1973 18.5015C22.291 18.7282 22.4385 18.9732 22.6396 19.2363C22.8366 19.4895 23.0318 19.6685 23.2252 19.7733ZM22.051 22.042C22.2284 21.9687 22.4045 21.7805 22.5793 21.4773C22.7541 21.1742 22.9064 20.8169 23.0364 20.4054C22.2707 20.1448 21.6755 19.5425 21.2506 18.5986C21.1567 18.7067 21.0892 18.9481 21.048 19.323C21.0067 19.6978 21.0044 20.097 21.041 20.5205C21.0776 20.944 21.1529 21.2937 21.267 21.5697C21.4545 22.0232 21.7158 22.1806 22.051 22.042Z" fill="#282828"/>
<path d="M27.9471 20.6472C27.6119 20.7546 27.2821 20.6867 26.9577 20.4435C26.6333 20.2003 26.4027 19.8653 26.2659 19.4387C26.1487 19.073 26.0834 18.5899 26.0701 17.9893C26.0568 17.3887 26.0917 16.8511 26.1747 16.3764C26.2679 15.8984 26.3958 15.6334 26.5583 15.5813C26.6294 15.5585 26.7491 15.565 26.9173 15.6006C27.0925 15.6229 27.2539 15.672 27.4014 15.7479C27.289 16.1312 27.2105 16.6548 27.1657 17.3188C27.1311 17.9796 27.1822 18.5233 27.319 18.9499C27.3808 19.1429 27.4714 19.3379 27.5905 19.5349C27.7166 19.7185 27.8761 19.7794 28.0691 19.7175C28.4449 19.5971 28.7584 19.0373 29.0094 18.0384C29.2673 17.026 29.4458 16.0278 29.5448 15.044C30.1868 14.9502 30.5469 15.0251 30.6251 15.2689C30.6316 15.2892 30.6179 15.4561 30.5839 15.7694C30.5301 16.3355 30.4955 16.8563 30.4799 17.3317C30.4643 17.8072 30.5069 18.2023 30.6079 18.5172C30.7219 18.8727 30.916 19.0065 31.1902 18.9186C31.4035 18.8502 31.6265 18.6723 31.8592 18.3849C32.0988 18.0841 32.3175 17.7003 32.5151 17.2337C32.7095 16.757 32.8454 16.2374 32.9227 15.6749L33.2098 15.7845C33.1622 16.4046 33.0307 16.99 32.8152 17.5408C32.5997 18.0915 32.3228 18.5555 31.9845 18.9328C31.6596 19.317 31.3092 19.5694 30.9334 19.6898C30.4865 19.8331 30.1481 19.7736 29.9184 19.5112C29.6956 19.2354 29.5011 18.8384 29.335 18.3204C29.159 18.9593 28.9675 19.48 28.7604 19.8824C28.5534 20.2848 28.2823 20.5397 27.9471 20.6472Z" fill="#282828"/>
<path d="M35.8982 19.0978C35.3159 19.2311 34.8271 19.1515 34.4319 18.8589C34.0367 18.5664 33.7641 18.0926 33.6142 17.4375C33.3905 16.4601 33.4037 15.0838 33.654 13.3086C33.9018 11.5229 34.2809 9.90423 34.7912 8.45245C35.2991 6.99028 35.7818 6.20683 36.2393 6.10212C36.4369 6.05691 36.6127 6.13158 36.7666 6.32613C36.931 6.51831 37.0505 6.75358 37.1251 7.03194C37.2393 7.53103 37.2177 8.22536 37.0602 9.11492C36.9003 9.99409 36.6241 10.867 36.2316 11.7338C35.8495 12.5982 35.3922 13.2773 34.8596 13.7713C34.7759 14.0749 34.7223 14.5577 34.6987 15.2197C34.6831 15.8688 34.7408 16.4794 34.8717 17.0512C34.9764 17.5087 35.1221 17.8584 35.3087 18.1002C35.5081 18.35 35.7482 18.4427 36.029 18.3785C36.2993 18.3166 36.5619 18.1252 36.8167 17.8043C37.0739 17.4937 37.2596 17.1339 37.3739 16.7247C36.952 16.6025 36.5954 16.3832 36.3042 16.0668C36.0209 15.7377 35.8305 15.36 35.733 14.9337C35.6187 14.4346 35.6611 13.9982 35.86 13.6244C36.0566 13.2401 36.3576 13.0016 36.7632 12.9088C37.1167 12.8279 37.4284 12.8988 37.6982 13.1216C37.9656 13.3339 38.1577 13.6948 38.2743 14.2043C38.4195 14.8386 38.4134 15.5294 38.2562 16.2766L38.5405 16.228C39.0188 16.1185 39.3758 15.8617 39.6116 15.4576C39.8474 15.0534 40.0289 14.5797 40.1562 14.0362L40.4651 14.3102C40.3319 15.0191 40.1087 15.5736 39.7954 15.9736C39.49 16.3608 39.0411 16.6222 38.4484 16.7579C38.3028 16.7912 38.1924 16.811 38.1173 16.8172C37.9116 17.4005 37.6249 17.8929 37.2572 18.2944C36.8918 18.7062 36.4388 18.9741 35.8982 19.0978ZM34.931 12.7208C35.2693 12.2386 35.5658 11.6455 35.8205 10.9416C36.0728 10.2273 36.2583 9.55561 36.377 8.92661C36.4932 8.28722 36.528 7.84156 36.4813 7.58963C36.358 7.67256 36.1836 7.98605 35.9579 8.5301C35.7323 9.07416 35.5213 9.72977 35.3248 10.4969C35.126 11.2537 34.9947 11.995 34.931 12.7208ZM37.5213 16.1494C37.6108 15.6802 37.6033 15.2169 37.4986 14.7594C37.4177 14.4059 37.3142 14.145 37.1882 13.9769C37.0622 13.8088 36.9316 13.7402 36.7964 13.7711C36.6612 13.8021 36.5631 13.923 36.5019 14.134C36.4512 14.3426 36.4555 14.5768 36.515 14.8368C36.5745 15.0967 36.6884 15.3552 36.8566 15.6121C37.0329 15.8563 37.2544 16.0354 37.5213 16.1494Z" fill="#282828"/>
<path d="M42.9141 17.3983C42.1754 17.5074 41.5947 17.3721 41.1721 16.9924C40.7615 16.6217 40.5126 16.1409 40.4254 15.55C40.3646 15.1385 40.3964 14.8427 40.5208 14.6626C40.6436 14.4719 40.7885 14.3211 40.9554 14.2102C41.1329 14.0978 41.2351 14.0234 41.2621 13.987C41.8346 13.1909 42.2396 12.3925 42.4772 11.5919L42.4539 11.4336C42.3962 11.0431 42.4167 10.7436 42.5153 10.535C42.6244 10.3248 42.7845 10.2041 42.9955 10.1729C43.2277 10.1387 43.3699 10.2255 43.4222 10.4334C43.43 10.4862 43.4258 10.5676 43.4097 10.6778C43.4042 10.7865 43.41 10.8988 43.4272 11.0149C43.4568 11.2154 43.5196 11.4218 43.6156 11.634C43.7116 11.8463 43.8563 12.1322 44.0496 12.4918C44.287 12.9312 44.4728 13.3135 44.6071 13.6387C44.7519 13.9624 44.85 14.2983 44.9014 14.6465C44.9279 14.8259 44.9388 15.0453 44.9339 15.3048C45.625 15.0195 46.1596 14.3314 46.5376 13.2405L46.7486 13.3549C46.6263 13.9875 46.4025 14.5165 46.0772 14.942C45.7624 15.3658 45.3572 15.6521 44.8616 15.8007C44.7551 16.2477 44.5275 16.6048 44.1787 16.872C43.8316 17.1496 43.41 17.3251 42.9141 17.3983ZM43.6788 15.4578C43.6965 15.3582 43.6881 15.1923 43.6539 14.9601C43.5934 14.624 43.5074 14.2971 43.3958 13.9793C43.2842 13.6615 43.1269 13.2534 42.9239 12.7551L42.6974 12.2063C42.3127 13.1796 41.9511 13.9069 41.6124 14.3882C41.837 14.6677 42.1315 14.9099 42.496 15.1149C42.859 15.3093 43.2533 15.4236 43.6788 15.4578ZM42.7004 16.7182C42.9115 16.6871 43.0989 16.6055 43.2627 16.4735C43.4371 16.3399 43.5569 16.1659 43.6223 15.9514C43.1983 15.9277 42.7951 15.8255 42.4125 15.6448C42.0285 15.4535 41.7107 15.2362 41.4591 14.993C41.3161 15.0465 41.2632 15.1999 41.3006 15.4531C41.3567 15.833 41.5121 16.1551 41.7668 16.4194C42.0199 16.6732 42.3311 16.7728 42.7004 16.7182Z" fill="#282828"/>
<path d="M49.9702 17.2239C49.3098 17.26 48.8085 17.1752 48.4661 16.9696C48.1349 16.774 47.9509 16.4369 47.9141 15.9581C47.9083 15.8516 47.964 15.7952 48.0811 15.7888C48.145 15.7853 48.2903 15.8041 48.5168 15.8451C48.7535 15.8749 49.1327 15.8756 49.6546 15.8471C50.8688 15.7808 51.9568 15.5558 52.9187 15.1721C53.8906 14.7772 54.644 14.2928 55.1788 13.7188C55.7137 13.1447 55.9645 12.5542 55.9314 11.9471C55.8906 11.2015 55.4746 10.7222 54.6831 10.509C53.891 10.2852 52.8933 10.2061 51.6897 10.2719L50.5083 10.3524C50.3782 10.9043 50.2618 11.4127 50.159 11.8777C50.0668 12.3421 49.9821 12.7473 49.9049 13.0934C49.6594 14.2712 49.4891 15.0656 49.3941 15.4767C49.0745 15.4942 48.793 15.4241 48.5493 15.2665C48.3057 15.1089 48.1772 14.9076 48.1638 14.6626C48.1534 14.4709 48.1933 14.223 48.2835 13.919L48.3369 13.7238L48.5097 13.0734C49.4907 9.32366 50.3575 6.61104 51.1099 4.93552C50.5838 5.08176 50.0469 5.32472 49.4993 5.66442C49.4472 5.68863 49.3747 5.72998 49.2817 5.78846C49.1882 5.8363 49.1201 5.86138 49.0775 5.86371C48.971 5.86952 48.8338 5.80224 48.6659 5.66185C48.4974 5.51081 48.4102 5.38204 48.4044 5.27553C49.1231 4.93718 49.7659 4.67775 50.3329 4.49724C50.9105 4.31614 51.5934 4.20408 52.3816 4.16104C53.436 4.10347 54.3778 4.23365 55.2071 4.55158C56.0363 4.86951 56.4786 5.53439 56.5338 6.54622C56.5786 7.36633 56.2895 8.03909 55.6665 8.5645C55.0537 9.07868 54.2847 9.47319 53.3596 9.74803C54.5719 9.84208 55.463 10.1192 56.0329 10.5795C56.6029 11.0398 56.9036 11.5575 56.935 12.1327C56.9879 13.1019 56.6291 13.9654 55.8586 14.7232C55.0987 15.4804 54.1589 16.0712 53.039 16.4955C51.9304 16.93 50.9074 17.1728 49.9702 17.2239ZM50.635 9.73656C52.0167 9.60771 53.1527 9.28396 54.0431 8.76531C54.9435 8.23543 55.3667 7.47523 55.3126 6.4847C55.2428 5.20661 54.2068 4.62222 52.2044 4.73155C51.6708 5.9144 51.1476 7.58274 50.635 9.73656Z" fill="#282828"/>
<path d="M60.2128 9.02526C59.9889 9.01839 59.7986 8.95919 59.642 8.84767C59.496 8.73647 59.4261 8.57959 59.4323 8.37702C59.4398 8.1318 59.5797 7.92266 59.8518 7.74959C60.1349 7.56619 60.431 7.47923 60.7402 7.48872C61.1986 7.50279 61.4218 7.70707 61.4097 8.10155C61.4028 8.32544 61.2735 8.54024 61.0217 8.74595C60.7703 8.94099 60.5007 9.0341 60.2128 9.02526ZM58.1043 16.1799C57.6565 16.1662 57.3141 16.0223 57.0771 15.7482C56.84 15.4742 56.7279 15.1292 56.7407 14.7134C56.7538 14.287 56.8887 13.7148 57.1455 12.997C57.4133 12.2689 57.737 11.6332 58.1165 11.0899C58.5066 10.547 58.8883 10.2812 59.2615 10.2927C59.4001 10.2969 59.5107 10.343 59.5934 10.4309C59.6871 10.5085 59.7316 10.6219 59.727 10.7712C59.7241 10.8671 59.6773 10.9991 59.5868 11.1671C59.4966 11.3244 59.3508 11.5547 59.1494 11.858C58.7909 12.4126 58.5036 12.9053 58.2876 13.3362C58.0826 13.7568 57.9743 14.159 57.9625 14.5428C57.9523 14.8733 58.0041 15.099 58.1178 15.2199C58.2315 15.3408 58.4109 15.405 58.6561 15.4125C59.4984 15.4384 60.3604 14.6484 61.242 13.0427L61.4741 13.306C61.0721 14.2327 60.5753 14.9485 59.9835 15.4533C59.3917 15.958 58.7653 16.2002 58.1043 16.1799Z" fill="#282828"/>
<path d="M63.8736 16.7773C63.2049 16.711 62.7026 16.4789 62.3669 16.0812C62.0312 15.6835 61.8912 15.2033 61.947 14.6407C62.0081 14.0251 62.2809 13.3822 62.7654 12.7121C63.251 12.0313 63.8412 11.4843 64.5361 11.0708C65.232 10.6468 65.8931 10.4658 66.5193 10.5279C66.8484 10.5606 67.1159 10.6729 67.322 10.8648C67.5291 11.0461 67.6137 11.3279 67.5758 11.71C67.5253 12.2195 67.281 12.683 66.843 13.1004C66.406 13.5073 65.8602 13.823 65.2055 14.0474C64.5614 14.273 63.912 14.3908 63.2571 14.4009C63.2254 14.5049 63.2026 14.6259 63.189 14.7639C63.1616 15.0399 63.2085 15.3232 63.3297 15.6139C63.4616 15.9057 63.7823 16.0769 64.2918 16.1274C64.9392 16.1916 65.6231 15.9969 66.3435 15.5431C67.0754 15.0797 67.6874 14.4758 68.1792 13.7314L68.4724 14.0177C67.9531 14.9309 67.2664 15.64 66.4124 16.1448C65.569 16.6507 64.7227 16.8615 63.8736 16.7773ZM63.4907 13.8291C63.877 13.8246 64.3169 13.7128 64.8102 13.4937C65.3142 13.2757 65.7497 12.992 66.1166 12.6425C66.4846 12.2824 66.6871 11.9166 66.7239 11.5451C66.7355 11.4283 66.7222 11.3466 66.6839 11.2999C66.6457 11.2533 66.5788 11.2252 66.4833 11.2157C66.1754 11.1852 65.821 11.3001 65.42 11.5605C65.0307 11.8113 64.66 12.1443 64.308 12.5596C63.956 12.9749 63.6835 13.398 63.4907 13.8291Z" fill="#282828"/>
<path d="M73.7446 17.8947C73.3458 17.8218 73.0545 17.6656 72.8706 17.426C72.6866 17.1864 72.6244 16.9039 72.6838 16.5786C72.7087 16.4422 72.7585 16.2886 72.833 16.1179C72.9181 15.9491 73.0031 15.7803 73.0882 15.6115C73.3232 15.1557 73.4619 14.8123 73.504 14.5815C73.5424 14.3716 73.5177 14.2099 73.43 14.0963C73.3443 13.9722 73.2227 13.8958 73.0653 13.867C72.5092 13.7654 71.8836 14.0144 71.1885 14.6139C70.4954 15.203 69.7258 15.9732 68.8797 16.9246C68.4285 16.8422 68.1153 16.6278 67.94 16.2813L68.1535 15.9137C69.0467 14.5263 69.5595 13.4706 69.6917 12.7466C69.7929 12.6675 69.9289 12.6056 70.0997 12.5609C70.2725 12.5057 70.4323 12.4915 70.5792 12.5183C70.7576 12.5509 70.8863 12.6178 70.9654 12.719C71.0445 12.8202 71.0706 12.9442 71.0438 13.0911C70.9921 13.3744 70.8176 13.8251 70.5203 14.4431C71.1075 13.8998 71.6894 13.4747 72.2659 13.168C72.8529 12.8632 73.393 12.7558 73.8861 12.8459C74.3059 12.9226 74.6043 13.1289 74.7815 13.4649C74.9606 13.7904 75.0137 14.1525 74.9409 14.5512C74.8987 14.7821 74.827 14.9967 74.7257 15.195C74.6349 15.3953 74.5078 15.6161 74.3445 15.8573C74.0856 16.2654 73.936 16.5797 73.8957 16.8C73.867 16.9574 73.8826 17.0795 73.9427 17.1664C74.0027 17.2533 74.0852 17.3063 74.1901 17.3255C74.5364 17.3887 74.952 17.2207 75.437 16.8213C75.9344 16.4134 76.4052 15.9139 76.8493 15.3227L77.0766 15.5919C76.5398 16.3939 75.9945 17.0045 75.4408 17.4238C74.8976 17.845 74.3322 18.002 73.7446 17.8947Z" fill="#282828"/>
<path d="M78.8427 20.3275C78.2058 20.1494 77.6716 19.8615 77.2401 19.4639C76.8085 19.0663 76.5159 18.6079 76.3621 18.0886C76.2185 17.5722 76.2215 17.0469 76.3709 16.5127C76.5404 15.9066 76.8736 15.3685 77.3707 14.8983C77.8808 14.4208 78.4898 14.065 79.1977 13.831C79.9055 13.597 80.6436 13.5321 81.412 13.6363C81.1415 13.2173 80.9647 12.7802 80.8816 12.3249C80.8087 11.8726 80.8327 11.4307 80.9533 10.9993C81.1056 10.4548 81.3894 9.97485 81.8046 9.55935C82.2331 9.13645 82.7406 8.84644 83.3273 8.68933C83.9271 8.52481 84.5506 8.53306 85.1977 8.71407C85.8244 8.88933 86.2641 9.17846 86.5169 9.58145C86.7725 9.97416 86.8199 10.4581 86.659 11.0334C86.5527 11.4135 86.3759 11.7683 86.1287 12.0979C85.8917 12.4304 85.6323 12.6845 85.3505 12.8605C85.0819 13.029 84.8551 13.0874 84.6702 13.0357C84.4134 12.9639 84.2257 12.6843 84.1073 12.1971C85.2181 11.7103 85.8626 11.1485 86.0407 10.5116C86.124 10.2137 86.086 9.95381 85.9265 9.73199C85.7773 9.51304 85.5332 9.35616 85.1942 9.26134C84.7525 9.1378 84.3336 9.17017 83.9376 9.35845C83.5444 9.53647 83.2039 9.82335 82.916 10.2191C82.631 10.6046 82.4209 11.0387 82.2859 11.5215C82.1509 12.0043 82.1089 12.491 82.16 12.9815C82.2242 13.4647 82.4135 13.9164 82.728 14.3366C81.9773 14.2485 81.27 14.322 80.6061 14.5572C79.9554 14.785 79.4012 15.1229 78.9436 15.5709C78.4992 16.0115 78.2037 16.4937 78.0572 17.0176C77.9595 17.3669 77.9315 17.7245 77.9731 18.0906C78.0249 18.4595 78.1697 18.7935 78.4072 19.0926C78.6419 19.4019 78.9904 19.6212 79.4526 19.7505C79.9971 19.9028 80.5846 19.901 81.2153 19.7451C81.8562 19.592 82.4796 19.3234 83.0855 18.939C83.6914 18.5547 84.2149 18.1086 84.6561 17.6006L84.9988 17.9789C84.0738 18.9496 83.0785 19.657 82.0128 20.1011C80.9472 20.5451 79.8905 20.6206 78.8427 20.3275ZM87.6322 8.97963C87.5602 8.68259 87.4628 8.4172 87.3398 8.18345C87.2272 7.95258 87.0741 7.68823 86.8805 7.39041C86.3648 7.41233 85.7662 7.53288 85.0847 7.75206C85.0243 7.69086 84.9901 7.61486 84.9823 7.52406C84.9774 7.42299 84.9849 7.3365 85.005 7.26459C85.0568 7.07969 85.2244 6.91612 85.5078 6.77388C85.7913 6.63164 86.0969 6.52884 86.4248 6.46547C86.7629 6.40498 87.009 6.39628 87.1631 6.43938C87.3274 6.48535 87.5019 6.63383 87.6864 6.88482C87.871 7.1358 88.0147 7.41412 88.1175 7.71978C88.2203 8.02543 88.2429 8.28098 88.1855 8.48643C88.1539 8.59943 88.0915 8.70381 87.9982 8.79956C87.905 8.89532 87.783 8.95534 87.6322 8.97963Z" fill="#282828"/>
<path d="M85.0968 21.6823C84.6367 21.512 84.3265 21.2436 84.1664 20.8773C84.0026 20.5209 84.017 20.0826 84.2096 19.5625C84.354 19.1723 84.6123 18.7049 84.9845 18.1603C85.3605 17.6056 85.7994 17.0345 86.3013 16.4468C86.0597 16.3005 85.9013 16.1907 85.8261 16.1174L85.9983 15.6522C86.2273 15.7711 86.4581 15.885 86.6908 15.9939C87.5594 15.0302 88.3987 14.2376 89.2088 13.6162C90.0289 12.9985 90.5991 12.7489 90.9192 12.8674C91.0292 12.9081 91.1094 12.9833 91.1598 13.093C91.2202 13.2063 91.2264 13.328 91.1782 13.458C91.119 13.6181 90.9693 13.8072 90.7293 14.0255C90.4893 14.2437 90.1074 14.5687 89.5836 15.0004C88.8694 15.5777 88.2947 16.0701 87.8595 16.4777C89.0099 16.9036 89.9381 17.2074 90.6443 17.3892L90.461 17.8843C89.2361 17.5674 88.2086 17.2553 87.3783 16.9479C86.4027 17.9858 85.7704 18.8948 85.4816 19.6751C85.3298 20.0852 85.2874 20.3994 85.3545 20.6175C85.4216 20.8357 85.5952 20.9967 85.8753 21.1004C86.3754 21.2855 86.9689 21.2493 87.6557 20.9917C88.3562 20.7278 89.046 20.278 89.7249 19.6421L89.8794 19.87C89.1249 20.6484 88.3133 21.2124 87.4446 21.5619C86.5796 21.9014 85.797 21.9415 85.0968 21.6823Z" fill="#282828"/>
<path d="M91.9875 24.2077C91.6282 24.0445 91.3809 23.8151 91.2457 23.5194C91.1061 23.2335 91.109 22.9303 91.2545 22.6097C91.3383 22.4252 91.4626 22.2415 91.6276 22.0587C91.8068 21.8706 92.0397 21.6542 92.3265 21.4095C92.5762 21.1949 92.7769 21.0107 92.9287 20.857C93.0849 20.6936 93.196 20.5391 93.2622 20.3934C93.4297 20.0243 93.328 19.6033 92.957 19.1303C92.5423 19.5278 92.0914 19.9146 91.6043 20.2909C91.1269 20.6717 90.709 20.9857 90.3507 21.233L90.324 20.7113C91.1323 20.1177 91.9247 19.4173 92.7012 18.61C92.6481 18.4688 92.6591 18.3156 92.734 18.1505C92.8487 17.898 93.0344 17.6953 93.2912 17.5425C93.548 17.3896 93.7493 17.3463 93.895 17.4124C93.9921 17.4565 94.0434 17.55 94.0487 17.693C94.0638 17.8405 94.0537 17.953 94.0184 18.0307C94.0008 18.0696 93.9368 18.146 93.8265 18.2599C93.7304 18.3685 93.6593 18.4476 93.6135 18.497C93.5923 18.5694 93.6003 18.6551 93.6374 18.7539C93.679 18.8431 93.7655 18.9878 93.8972 19.1881C94.1357 19.5658 94.2988 19.9034 94.3863 20.2009C94.488 20.493 94.4594 20.8139 94.3007 21.1636C94.2037 21.3773 94.0678 21.5733 93.8931 21.7517C93.7282 21.9345 93.5045 22.1434 93.2221 22.3784C92.8144 22.7087 92.5687 22.9662 92.4849 23.1507C92.3835 23.3741 92.4542 23.5409 92.697 23.6512C92.9884 23.7834 93.357 23.8102 93.8027 23.7314C94.2582 23.657 94.7018 23.5186 95.1333 23.3163C95.579 23.1086 95.936 22.8899 96.2043 22.6603L96.4349 23.0812C96.0422 23.4301 95.5807 23.7243 95.0502 23.9638C94.5198 24.2033 93.9787 24.3501 93.427 24.4042C92.885 24.4628 92.4052 24.3972 91.9875 24.2077Z" fill="#282828"/>
<path d="M96.6174 26.8863C96.028 26.5635 95.6568 26.1534 95.5036 25.6559C95.3504 25.1585 95.4096 24.6619 95.6812 24.1661C95.9784 23.6235 96.4811 23.1387 97.1893 22.7118C97.9026 22.2755 98.6599 22.0031 99.4611 21.8948C100.268 21.777 100.947 21.8693 101.499 22.1717C101.789 22.3305 101.991 22.5386 102.105 22.7959C102.225 23.0438 102.192 23.3362 102.008 23.673C101.762 24.122 101.356 24.4529 100.789 24.6655C100.228 24.8688 99.6021 24.9456 98.9118 24.8959C98.2308 24.8512 97.5871 24.7054 96.9806 24.4582C96.9106 24.5415 96.8423 24.644 96.7757 24.7656C96.6425 25.0089 96.5747 25.288 96.5725 25.6029C96.5795 25.923 96.8076 26.2061 97.2567 26.452C97.8273 26.7646 98.5329 26.8532 99.3733 26.7176C100.228 26.5778 101.028 26.2617 101.772 25.7693L101.93 26.1476C101.094 26.7845 100.185 27.1681 99.2012 27.2983C98.2271 27.4336 97.3658 27.2963 96.6174 26.8863ZM97.4193 24.0236C97.7766 24.1707 98.2251 24.24 98.7649 24.2316C99.314 24.2283 99.8257 24.1377 100.3 23.9598C100.78 23.7725 101.109 23.5152 101.289 23.1877C101.345 23.0848 101.365 23.0044 101.348 22.9465C101.331 22.8886 101.28 22.8366 101.196 22.7904C100.925 22.6418 100.554 22.6088 100.083 22.6914C99.6264 22.7698 99.155 22.9311 98.6684 23.1754C98.1819 23.4197 97.7655 23.7024 97.4193 24.0236Z" fill="#282828"/>
<g clip-path="url(#clip0)">
<path d="M63.6377 65.8161C66.2112 63.051 66.0023 58.678 65.9919 58.4892C65.9755 58.1911 65.7373 57.953 65.4391 57.9366C65.3499 57.9315 64.0857 57.8699 62.5038 58.1918C62.1917 56.5894 61.645 55.4381 61.6191 55.3839C61.4898 55.1147 61.1789 54.986 60.8969 55.0848C60.8403 55.1047 59.6403 55.5319 58.2872 56.4439C57.3996 55.1037 56.4649 54.2549 56.3908 54.1885C56.1685 53.9892 55.8317 53.9892 55.6092 54.1885C55.5351 54.2549 54.6005 55.1037 53.7129 56.4441C52.3597 55.5321 51.1596 55.1047 51.1032 55.0848C50.8213 54.9861 50.5102 55.1147 50.381 55.3839C50.355 55.4381 49.8081 56.5894 49.4962 58.192C47.9144 57.87 46.65 57.9317 46.5608 57.9366C46.2626 57.953 46.0246 58.1911 46.0081 58.4894C45.9976 58.678 45.7888 63.051 48.3624 65.8161C47.0512 66.5419 46.1927 67.4903 46.1503 67.5376C45.9512 67.7601 45.9512 68.0968 46.1503 68.3193C46.2435 68.4234 48.4646 70.8677 51.2933 70.8677C52.0283 70.8677 52.722 70.7024 53.3483 70.4563C53.9994 72.4286 55.5368 73.823 55.6091 73.888C55.7203 73.9875 55.8602 74.0374 56 74.0374C56.1398 74.0374 56.2796 73.9875 56.3908 73.888C56.4633 73.8232 58.0003 72.4286 58.6515 70.4564C59.2779 70.7024 59.9716 70.8677 60.7066 70.8677C63.5353 70.8677 65.7565 68.4234 65.8497 68.3193C66.0489 68.0968 66.0489 67.7601 65.8497 67.5376C65.8072 67.4901 64.9485 66.5418 63.6377 65.8161ZM62.6408 65.1625C61.1168 66.6866 58.8467 67.1537 57.4031 67.2922C58.4446 66.0485 59.9118 63.8413 59.9118 61.2767C59.9118 60.9897 59.8928 60.7074 59.8588 60.4302C61.6371 59.3314 63.82 59.1344 64.8231 59.1061C64.7899 60.3273 64.5079 63.2955 62.6408 65.1625ZM60.775 56.4006C60.9517 56.8625 61.2002 57.6039 61.3664 58.4822C60.7827 58.6636 60.1847 58.9035 59.608 59.2201C59.4242 58.588 59.1709 57.9951 58.8862 57.4538C59.6243 56.9507 60.3238 56.602 60.775 56.4006ZM56.0006 55.4512C56.7315 56.2231 58.2638 58.0631 58.6499 60.2669C58.65 60.2672 58.65 60.2675 58.6502 60.268C58.7077 60.5968 58.7399 60.9339 58.7399 61.2767C58.7399 63.908 56.8402 66.2116 56 67.1015C55.1599 66.2116 53.26 63.908 53.26 61.2767C53.26 58.6446 55.1612 56.3402 56.0006 55.4512ZM51.2249 56.4006C51.6761 56.6022 52.3757 56.9508 53.1137 57.4539C52.8289 57.9951 52.5756 58.588 52.3919 59.2201C51.8151 58.9035 51.2171 58.6636 50.6335 58.4822C50.7997 57.6039 51.0484 56.8623 51.2249 56.4006ZM52.1411 60.4302C52.107 60.7074 52.0883 60.9897 52.0883 61.2767C52.0883 63.8428 53.5569 66.0509 54.5985 67.2944C53.1568 67.1576 50.8885 66.6919 49.3589 65.1625C47.4976 63.3013 47.2128 60.3275 47.1777 59.1052C48.18 59.1324 50.3584 59.3277 52.1411 60.4302ZM47.4232 67.9276C47.8179 67.5699 48.4805 67.04 49.2976 66.6524C51.0028 67.9227 53.1091 68.3373 54.5089 68.4664C54.2189 68.6814 53.8789 68.9045 53.5018 69.1007C53.4808 69.1098 53.4605 69.1205 53.441 69.132C52.8063 69.4538 52.0709 69.6959 51.2933 69.6959C49.6093 69.6959 48.1115 68.5494 47.4232 67.9276ZM55.9991 72.6151C55.5288 72.0963 54.7605 71.1161 54.4126 69.9347C55.0999 69.5307 55.6478 69.0773 55.9999 68.7534C56.3519 69.0773 56.8998 69.5307 57.5869 69.9346C57.2395 71.1115 56.4694 72.0948 55.9991 72.6151ZM60.7066 69.6959C59.4435 69.6959 58.2853 69.051 57.4946 68.4659C58.8945 68.3365 60.9986 67.9215 62.7021 66.6526C63.5162 67.0391 64.1809 67.5708 64.577 67.929C63.8907 68.5512 62.398 69.6959 60.7066 69.6959Z" fill="#F0C4C8"/>
</g>
<g clip-path="url(#clip1)">
<path d="M67.8871 83.2553L67.5644 83.3602C66.8201 81.9737 65.2008 81.1857 63.786 81.6058C63.7814 81.6071 63.7769 81.6085 63.7724 81.61L63.0923 81.8306C62.5201 81.1186 61.7404 80.6025 60.8616 80.3537C59.9827 80.1049 59.0482 80.1358 58.1877 80.442L54.7444 81.5737L50.5796 80.8137C49.6717 80.6468 48.8129 80.2778 48.0669 79.7342L47.5467 79.3544C46.0766 78.2749 44.3365 77.6234 42.519 77.4719C40.7015 77.3204 38.8776 77.6749 37.2491 78.4961C37.2353 78.5031 37.2218 78.5101 37.2086 78.5184L35.6079 79.4933C35.0243 79.8484 29.3416 81.6261 25.8967 82.6633C25.8259 82.6846 25.7601 82.7196 25.7029 82.7663C25.6457 82.8131 25.5982 82.8706 25.5633 82.9357C25.5283 83.0008 25.5065 83.0721 25.4991 83.1456C25.4917 83.2191 25.4989 83.2933 25.5202 83.3641C25.5415 83.4348 25.5765 83.5006 25.6232 83.5578C25.67 83.615 25.7275 83.6625 25.7926 83.6974C25.8577 83.7324 25.929 83.7542 26.0025 83.7616C26.076 83.769 26.1502 83.7618 26.221 83.7405C27.7319 83.2856 35.3135 80.9895 36.1927 80.4542L37.7738 79.4914C39.216 78.7689 40.8297 78.4585 42.437 78.5946C44.0443 78.7307 45.5829 79.3079 46.8831 80.2626L47.4032 80.6425C48.2863 81.2861 49.3029 81.7228 50.3776 81.9204L55.91 82.93C56.753 83.085 57.5138 83.5337 58.0573 84.1964C58.6008 84.8591 58.8919 85.693 58.879 86.55L54.8195 85.6181C53.3777 85.2874 51.9089 85.0889 50.4311 85.025C50.3568 85.0209 50.2825 85.0317 50.2124 85.0566C50.1423 85.0815 50.0778 85.1201 50.0228 85.1701C49.9677 85.2201 49.9231 85.2805 49.8915 85.3479C49.8599 85.4152 49.842 85.4881 49.8388 85.5625C49.8356 85.6368 49.8472 85.711 49.8729 85.7808C49.8986 85.8506 49.9378 85.9146 49.9884 85.9692C50.039 86.0237 50.0999 86.0677 50.1676 86.0985C50.2353 86.1293 50.3084 86.1465 50.3827 86.1488C51.7921 86.2098 53.193 86.3992 54.5679 86.7146L59.2479 87.7894C59.322 87.8064 59.3988 87.8082 59.4737 87.7947C59.5485 87.7812 59.6199 87.7526 59.6834 87.7108C59.7469 87.6689 59.8012 87.6146 59.8431 87.5511C59.8851 87.4877 59.9137 87.4164 59.9272 87.3416C59.948 87.228 59.963 87.1148 59.9753 87.0017L60.7266 86.7655L68.2354 84.3253C68.8394 84.1279 69.4924 84.1402 70.0886 84.3603C70.6848 84.5803 71.1893 84.9951 71.5204 85.5375L55.8993 92.5354C53.9119 93.0919 51.7991 93.0027 49.8657 92.2807L41.8468 89.2384C40.989 88.8524 40.0162 88.8083 39.127 89.1149L29.9462 92.3497C29.8762 92.374 29.8117 92.4119 29.7564 92.4612C29.7011 92.5105 29.6561 92.5702 29.6239 92.637C29.5917 92.7037 29.5731 92.7762 29.569 92.8502C29.5649 92.9242 29.5755 92.9982 29.6001 93.0681C29.6247 93.138 29.6629 93.2023 29.7125 93.2574C29.762 93.3125 29.822 93.3572 29.8889 93.3891C29.9558 93.4209 30.0283 93.4392 30.1023 93.4429C30.1763 93.4467 30.2503 93.4357 30.3201 93.4108L39.4959 90.1775C40.1185 89.9637 40.7994 89.9969 41.3984 90.27C41.4093 90.2751 41.4204 90.2797 41.4316 90.2838L49.4682 93.333C51.6409 94.1446 54.0161 94.2403 56.2471 93.6061C56.2727 93.5988 56.2978 93.5896 56.3221 93.5787L72.5086 86.3275C72.6395 86.2689 72.743 86.1625 72.7981 86.0302C72.8531 85.8978 72.8556 85.7494 72.8049 85.6153C72.4468 84.6643 71.7357 83.8882 70.8196 83.4485C69.9034 83.0089 68.853 82.9397 67.8871 83.2553ZM58.546 81.5085L58.5605 81.5036C59.131 81.2994 59.7469 81.2575 60.3397 81.3825C60.9325 81.5075 61.479 81.7945 61.9185 82.2117L58.721 83.249C58.2204 82.7128 57.6017 82.3006 56.9141 82.0451L58.546 81.5085ZM60.3838 85.694L59.9568 85.8283C59.8761 85.2593 59.6926 84.7097 59.4152 84.2064L64.1123 82.6825C64.9498 82.4378 65.9391 82.9031 66.4689 83.7163L60.3838 85.694Z" fill="black"/>
</g>
<g clip-path="url(#clip2)">
<path d="M49.88 41.7198L50.2123 41.6505C50.8019 43.1094 52.3263 44.0683 53.7784 43.8039C53.783 43.803 53.7877 43.8021 53.7923 43.8012L54.4923 43.6556C54.984 44.4253 55.7032 45.0229 56.5499 45.3654C57.3966 45.708 58.329 45.7785 59.2176 45.5673L62.7633 44.8153L66.8212 46.022C67.7057 46.2863 68.5194 46.7461 69.2022 47.3674L69.6782 47.8013C71.0226 49.0337 72.6819 49.8699 74.4723 50.2174C76.2627 50.5649 78.1143 50.4101 79.8222 49.7702C79.8366 49.7647 79.8508 49.7591 79.8648 49.7524L81.5617 48.9566C82.1804 48.6668 88.0222 47.5153 91.5592 46.8574C91.6319 46.8439 91.7011 46.8162 91.763 46.7759C91.825 46.7356 91.8784 46.6836 91.9202 46.6227C91.962 46.5618 91.9914 46.4932 92.0067 46.4209C92.022 46.3487 92.0229 46.2741 92.0094 46.2015C91.9959 46.1289 91.9682 46.0596 91.928 45.9977C91.8877 45.9358 91.8356 45.8824 91.7747 45.8406C91.7138 45.7988 91.6453 45.7694 91.573 45.754C91.5007 45.7387 91.4262 45.7378 91.3535 45.7513C89.8022 46.0398 82.0165 47.5011 81.0844 47.9381L79.4084 48.7238C77.8964 49.2859 76.2586 49.4196 74.6755 49.1102C73.0923 48.8008 71.6254 48.0603 70.4362 46.9703L69.9604 46.5363C69.1521 45.8009 68.1889 45.2566 67.1419 44.9437L61.7514 43.3407C60.9302 43.0953 60.2225 42.5668 59.754 41.8491C59.2854 41.1314 59.0864 40.2709 59.1921 39.4204L63.1267 40.7866C64.5242 41.2715 65.9629 41.6279 67.4251 41.8516C67.4985 41.8637 67.5735 41.861 67.6459 41.8438C67.7183 41.8267 67.7865 41.7953 67.8467 41.7516C67.9069 41.7078 67.9578 41.6526 67.9965 41.5891C68.0351 41.5256 68.0608 41.455 68.0721 41.3815C68.0833 41.3079 68.0798 41.2329 68.0619 41.1607C68.0439 41.0885 68.0118 41.0206 67.9674 40.9609C67.9231 40.9012 67.8673 40.8509 67.8033 40.813C67.7394 40.775 67.6685 40.75 67.5949 40.7396C66.2004 40.5263 64.8283 40.1863 63.4956 39.7238L58.9596 38.1483C58.8878 38.1234 58.8116 38.1132 58.7357 38.1186C58.6599 38.1239 58.5859 38.1445 58.5182 38.1793C58.4505 38.214 58.3906 38.2621 58.3421 38.3206C58.2935 38.3792 58.2574 38.447 58.2358 38.5199C58.2029 38.6305 58.1757 38.7415 58.1511 38.8525L57.3787 39.006L49.6498 40.6184C49.0279 40.7491 48.3801 40.6661 47.8112 40.3828C47.2424 40.0995 46.7858 39.6325 46.5154 39.0574L62.8027 33.793C64.8387 33.4551 66.9294 33.7726 68.7732 34.6998L76.4153 38.593C77.2262 39.0696 78.1885 39.2189 79.1058 39.0104L88.5829 36.7892C88.6551 36.7726 88.7233 36.742 88.7837 36.6989C88.844 36.6559 88.8952 36.6014 88.9344 36.5386C88.9736 36.4757 89 36.4057 89.0121 36.3326C89.0242 36.2595 89.0217 36.1847 89.0048 36.1126C88.9879 36.0404 88.9569 35.9723 88.9136 35.9122C88.8703 35.8521 88.8155 35.8011 88.7525 35.7622C88.6894 35.7233 88.6193 35.6972 88.5461 35.6855C88.473 35.6738 88.3982 35.6766 88.3262 35.6939L78.8541 37.9141C78.212 38.0591 77.5387 37.9524 76.9728 37.616C76.9625 37.6098 76.952 37.604 76.9413 37.5987L69.2823 33.6968C67.2104 32.6546 64.8595 32.3021 62.573 32.6909C62.5467 32.6954 62.5208 32.7018 62.4954 32.71L45.6186 38.165C45.4822 38.2091 45.3677 38.3036 45.2986 38.4292C45.2295 38.5548 45.211 38.7021 45.2469 38.8409C45.4998 39.8251 46.1227 40.6737 46.9858 41.21C47.8489 41.7463 48.8856 41.9289 49.88 41.7198ZM58.977 44.4682L58.962 44.4716C58.3728 44.6128 57.756 44.5877 57.1802 44.3992C56.6044 44.2107 56.0922 43.8661 55.7005 43.4039L58.9916 42.7191C59.4311 43.3064 60.0015 43.7831 60.6574 44.1116L58.977 44.4682ZM57.6034 40.1083L58.0425 40.0211C58.061 40.5955 58.1839 41.1617 58.4052 41.6921L53.5706 42.6982C52.7115 42.8507 51.7785 42.2809 51.3398 41.4151L57.6034 40.1083Z" fill="black"/>
</g>
<defs>
<linearGradient id="paint0_linear" x1="56" y1="73" x2="56" y2="120" gradientUnits="userSpaceOnUse">
<stop offset="0.635417" stop-color="#282828"/>
<stop offset="0.895833" stop-color="#282828" stop-opacity="0"/>
</linearGradient>
<linearGradient id="paint1_linear" x1="56" y1="8" x2="56" y2="120" gradientUnits="userSpaceOnUse">
<stop stop-color="white"/>
<stop offset="0.161458" stop-color="white"/>
<stop offset="0.359375" stop-color="white" stop-opacity="0"/>
</linearGradient>
<clipPath id="clip0">
<rect width="20" height="20" fill="white" transform="translate(46 54)"/>
</clipPath>
<clipPath id="clip1">
<rect width="48" height="48" fill="white" transform="translate(31.6172 47) rotate(10.3423)"/>
</clipPath>
<clipPath id="clip2">
<rect width="48" height="48" fill="white" transform="translate(82.0088 81.6909) rotate(-163.438)"/>
</clipPath>
</defs>
</svg>
