<svg width="112" height="112" viewBox="0 0 112 112" fill="none" xmlns="http://www.w3.org/2000/svg">
<path d="M37.2625 20.4874C37.425 20.6499 37.618 20.7788 37.8303 20.8667C38.0426 20.9547 38.2702 21 38.5 21C38.7298 21 38.9574 20.9547 39.1697 20.8667C39.382 20.7788 39.575 20.6499 39.7375 20.4874L47.4001 12.8246C48.4244 11.8002 48.9999 10.4109 48.9999 8.9622C48.9999 7.51354 48.4244 6.1242 47.4001 5.09984C46.3757 4.07548 44.9864 3.5 43.5377 3.5C42.089 3.5 40.6997 4.07548 39.6753 5.09984L38.5 6.27519L37.3247 5.09984C36.3003 4.07548 34.911 3.5 33.4623 3.5C32.0136 3.5 30.6243 4.07548 29.5999 5.09984C28.5756 6.1242 28.0001 7.51354 28.0001 8.9622C28.0001 10.4109 28.5756 11.8002 29.5999 12.8246L37.2625 20.4874ZM33.4624 6.9999C33.7202 6.99919 33.9756 7.04962 34.2137 7.14826C34.4519 7.2469 34.6681 7.39179 34.8499 7.57456L37.2625 9.98737C37.425 10.1499 37.618 10.2788 37.8303 10.3667C38.0426 10.4547 38.2702 10.5 38.5 10.5C38.7298 10.5 38.9574 10.4547 39.1697 10.3667C39.382 10.2788 39.575 10.1499 39.7375 9.98737L42.1501 7.57456C42.3323 7.39233 42.5486 7.24778 42.7867 7.14916C43.0248 7.05054 43.28 6.99978 43.5377 6.99978C43.7954 6.99978 44.0506 7.05054 44.2887 7.14916C44.5268 7.24778 44.7431 7.39233 44.9253 7.57456C45.1076 7.75679 45.2521 7.97312 45.3507 8.21122C45.4494 8.44931 45.5001 8.70449 45.5001 8.9622C45.5001 9.21991 45.4494 9.47509 45.3507 9.71319C45.2521 9.95128 45.1076 10.1676 44.9253 10.3498L38.5 16.7752L32.0747 10.3498C31.8002 10.0754 31.6134 9.72571 31.5377 9.34505C31.462 8.96438 31.5008 8.56982 31.6494 8.21126C31.7979 7.85269 32.0495 7.54622 32.3722 7.3306C32.6949 7.11498 33.0743 6.9999 33.4624 6.9999Z" fill="black"/>
<path d="M47.25 45.5C47.25 45.0359 47.0656 44.5908 46.7374 44.2626C46.4093 43.9344 45.9641 43.75 45.5 43.75H31.5C31.0359 43.75 30.5908 43.9344 30.2626 44.2626C29.9344 44.5908 29.75 45.0359 29.75 45.5V82.25C29.75 89.2119 32.5156 95.8887 37.4384 100.812C42.3613 105.734 49.0381 108.5 56 108.5C62.9619 108.5 69.6387 105.734 74.5616 100.812C79.4844 95.8887 82.25 89.2119 82.25 82.25V45.5C82.25 45.0359 82.0656 44.5908 81.7374 44.2626C81.4092 43.9344 80.9641 43.75 80.5 43.75H66.5C66.0359 43.75 65.5908 43.9344 65.2626 44.2626C64.9344 44.5908 64.75 45.0359 64.75 45.5V82.25C64.75 84.5706 63.8281 86.7962 62.1872 88.4372C60.5462 90.0781 58.3206 91 56 91C53.6794 91 51.4538 90.0781 49.8128 88.4372C48.1719 86.7962 47.25 84.5706 47.25 82.25V45.5ZM33.25 47.25H43.75V54.25H33.25V47.25ZM68.25 47.25H78.75V54.25H68.25V47.25ZM56 94.5C59.2478 94.4963 62.3615 93.2045 64.658 90.908C66.9545 88.6115 68.2463 85.4978 68.25 82.25V57.75H78.75V82.25C78.75 88.2837 76.3531 94.0702 72.0867 98.3367C67.8202 102.603 62.0337 105 56 105C49.9663 105 44.1798 102.603 39.9133 98.3367C35.6469 94.0702 33.25 88.2837 33.25 82.25V57.75H43.75V82.25C43.7537 85.4978 45.0455 88.6115 47.342 90.908C49.6386 93.2045 52.7522 94.4963 56 94.5Z" fill="black"/>
<path d="M72.2625 39.7373C72.425 39.8998 72.618 40.0288 72.8303 40.1167C73.0426 40.2047 73.2702 40.2499 73.5 40.2499C73.7298 40.2499 73.9574 40.2047 74.1697 40.1167C74.382 40.0288 74.575 39.8998 74.7375 39.7373L83.9326 30.5422C84.5143 29.9672 84.9765 29.283 85.2927 28.5287C85.609 27.7745 85.773 26.9652 85.7754 26.1474C85.7778 25.3295 85.6184 24.5193 85.3066 23.7633C84.9947 23.0072 84.5364 22.3203 83.9581 21.742C83.3798 21.1637 82.6929 20.7054 81.9369 20.3935C81.1808 20.0816 80.3706 19.9222 79.5528 19.9246C78.7349 19.9269 77.9256 20.0909 77.1714 20.4072C76.4171 20.7234 75.7329 21.1856 75.1579 21.7672L73.5 23.4249L71.8421 21.767C70.6773 20.609 69.1008 19.96 67.4583 19.9625C65.8158 19.9649 64.2412 20.6185 63.0798 21.7799C61.9184 22.9414 61.2649 24.516 61.2626 26.1585C61.2603 27.801 61.9093 29.3774 63.0674 30.5422L72.2625 39.7373ZM67.4548 23.4499C67.8102 23.4489 68.1621 23.5185 68.4904 23.6544C68.8187 23.7904 69.1168 23.9901 69.3674 24.242L72.2625 27.1373C72.425 27.2999 72.618 27.4288 72.8303 27.5167C73.0426 27.6047 73.2702 27.6499 73.5 27.6499C73.7298 27.6499 73.9574 27.6047 74.1697 27.5167C74.382 27.4288 74.575 27.2999 74.7375 27.1373L77.6326 24.2422C78.1399 23.735 78.8278 23.45 79.5452 23.45C80.2625 23.45 80.9504 23.735 81.4577 24.2422C81.9649 24.7494 82.2499 25.4374 82.2499 26.1547C82.2499 26.8721 81.9649 27.56 81.4577 28.0672L73.5 36.0252L65.5423 28.0672C65.164 27.689 64.9063 27.2071 64.8019 26.6824C64.6975 26.1577 64.751 25.6138 64.9557 25.1195C65.1605 24.6252 65.5072 24.2028 65.952 23.9056C66.3969 23.6084 66.9199 23.4498 67.4548 23.4499Z" fill="black"/>
<path d="M31.5 29.75C31.9641 29.75 32.4092 29.5656 32.7374 29.2374C33.0656 28.9092 33.25 28.4641 33.25 28V26.25C33.25 25.7859 33.0656 25.3408 32.7374 25.0126C32.4092 24.6844 31.9641 24.5 31.5 24.5C31.0359 24.5 30.5908 24.6844 30.2626 25.0126C29.9344 25.3408 29.75 25.7859 29.75 26.25V28C29.75 28.4641 29.9344 28.9092 30.2626 29.2374C30.5908 29.5656 31.0359 29.75 31.5 29.75Z" fill="black"/>
<path d="M40.25 35V26.25C40.25 25.7859 40.0656 25.3408 39.7374 25.0126C39.4092 24.6844 38.9641 24.5 38.5 24.5C38.0359 24.5 37.5908 24.6844 37.2626 25.0126C36.9344 25.3408 36.75 25.7859 36.75 26.25V35C36.75 35.4641 36.9344 35.9092 37.2626 36.2374C37.5908 36.5656 38.0359 36.75 38.5 36.75C38.9641 36.75 39.4092 36.5656 39.7374 36.2374C40.0656 35.9092 40.25 35.4641 40.25 35Z" fill="black"/>
<path d="M47.25 29.75V26.25C47.25 25.7859 47.0656 25.3408 46.7374 25.0126C46.4092 24.6844 45.9641 24.5 45.5 24.5C45.0359 24.5 44.5908 24.6844 44.2626 25.0126C43.9344 25.3408 43.75 25.7859 43.75 26.25V29.75C43.75 30.2141 43.9344 30.6592 44.2626 30.9874C44.5908 31.3156 45.0359 31.5 45.5 31.5C45.9641 31.5 46.4092 31.3156 46.7374 30.9874C47.0656 30.6592 47.25 30.2141 47.25 29.75Z" fill="black"/>
<path d="M29.75 38.5C29.75 38.9641 29.9344 39.4092 30.2626 39.7374C30.5908 40.0656 31.0359 40.25 31.5 40.25C31.9641 40.25 32.4092 40.0656 32.7374 39.7374C33.0656 39.4092 33.25 38.9641 33.25 38.5V33.25C33.25 32.7859 33.0656 32.3408 32.7374 32.0126C32.4092 31.6844 31.9641 31.5 31.5 31.5C31.0359 31.5 30.5908 31.6844 30.2626 32.0126C29.9344 32.3408 29.75 32.7859 29.75 33.25V38.5Z" fill="black"/>
<path d="M73.5 66.5C73.9641 66.5 74.4092 66.3156 74.7374 65.9874C75.0656 65.6593 75.25 65.2141 75.25 64.75V63C75.25 62.5359 75.0656 62.0908 74.7374 61.7626C74.4092 61.4344 73.9641 61.25 73.5 61.25C73.0359 61.25 72.5907 61.4344 72.2626 61.7626C71.9344 62.0908 71.75 62.5359 71.75 63V64.75C71.75 65.2141 71.9344 65.6593 72.2626 65.9874C72.5907 66.3156 73.0359 66.5 73.5 66.5Z" fill="black"/>
<path d="M73.5 78.75C73.9641 78.75 74.4092 78.5656 74.7374 78.2374C75.0656 77.9092 75.25 77.4641 75.25 77V71.75C75.25 71.2859 75.0656 70.8408 74.7374 70.5126C74.4092 70.1844 73.9641 70 73.5 70C73.0359 70 72.5907 70.1844 72.2626 70.5126C71.9344 70.8408 71.75 71.2859 71.75 71.75V77C71.75 77.4641 71.9344 77.9092 72.2626 78.2374C72.5907 78.5656 73.0359 78.75 73.5 78.75Z" fill="black"/>
</svg>
