<svg width="32" height="32" viewBox="0 0 32 32" fill="none" xmlns="http://www.w3.org/2000/svg">
<g clip-path="url(#clip0)">
<path d="M29.723 7.3594C29.7084 7.27402 29.6742 7.1929 29.6228 7.1234C29.5325 7.00133 28.6751 5.93652 25.89 5.44952L24.1848 3.84027C23.3683 1.58589 21.5271 0.363383 21.4476 0.311383C21.414 0.28957 21.3781 0.271258 21.3404 0.257258C21.2361 0.217695 18.7956 -0.670744 16.4772 1.10288L6.0426 3.85827C3.60285 4.15108 1.91841 5.88696 1.84759 5.96102C1.80716 6.00327 1.77353 6.05177 1.74847 6.10458C1.70184 6.20183 0.64103 8.48371 1.85759 11.0817L1.69759 17.453C0.871468 19.3067 0.53203 21.5409 0.517717 21.6368C0.499905 21.7561 0.522092 21.8782 0.579905 21.9841C0.75853 22.3087 2.35535 25.1021 4.47085 25.2228L13.8358 30.0204C15.6531 31.4158 17.7137 31.9599 17.8013 31.9826C17.8466 31.9941 17.8929 32.0001 17.9395 32.0001C17.9718 32.0001 18.0039 31.9974 18.0359 31.9914C18.7183 31.8705 20.2505 30.7714 21.4118 28.7915L23.0914 27.4314C25.31 27.5518 27.2293 26.901 27.3128 26.8724C27.3877 26.8469 27.4561 26.8053 27.5135 26.7506C28.066 26.2262 28.7785 24.4806 28.6484 22.2289L29.9255 12.0585C30.1267 9.79622 29.7393 7.45765 29.723 7.3594Z" fill="#F1DEF2"/>
<path d="M26.8252 8.26582L20.6963 3.03606C16.9547 0.121431 10.1911 0.453869 9.9042 0.468681C9.80752 0.474056 9.7137 0.504556 9.63264 0.557556C9.40101 0.708619 3.95113 4.31294 3.43238 8.93926L2.92082 19.2915C2.92082 19.296 2.92057 19.3003 2.92057 19.3049C2.80338 23.9889 7.1032 28.9053 7.28645 29.1125C7.35382 29.1885 7.44051 29.2445 7.53782 29.2744C7.69301 29.3221 9.95302 30.0009 12.5978 30.0009C14.3585 30.0009 16.2902 29.6998 17.8833 28.7109L24.3449 25.7884C28.6517 23.9431 31.3291 17.9855 31.4411 17.7329C31.4802 17.6446 31.4952 17.5475 31.4853 17.4514C31.4567 17.1828 30.7439 10.8616 26.8252 8.26582Z" fill="#F3E7F1"/>
<path d="M25.285 18.8015C25.1948 18.8055 23.0265 18.9227 19.0476 20.6678C15.0936 22.4023 11.5106 25.3076 11.36 25.4304C11.166 25.5886 11.1027 25.8572 11.2057 26.085C12.2824 28.469 16.8171 28.8523 19.6219 28.8523C20.7151 28.8523 21.5457 28.7938 21.8057 28.7734C21.9434 28.7623 22.0716 28.7004 22.1656 28.5994C22.3965 28.3515 27.7946 22.493 25.7861 19.0733C25.6824 18.8969 25.4971 18.7988 25.285 18.8015Z" fill="#F0CDE4"/>
<path d="M8.95458 5.83766C4.78188 5.54084 0.754435 12.5247 0.584434 12.8221C0.519247 12.9363 0.496872 13.07 0.521434 13.1992C0.584747 13.5316 2.11669 21.3496 6.06232 21.7523C6.08113 21.7544 6.09976 21.7552 6.11838 21.7552C6.29263 21.7552 6.45782 21.6728 6.56257 21.5308C6.62645 21.4438 8.14064 19.3572 8.91426 15.4887C9.6772 11.6745 9.47645 6.58003 9.46752 6.36503C9.45589 6.08441 9.23502 5.85703 8.95458 5.83766Z" fill="#F0CDE4"/>
<path d="M25.2004 4.29902C25.1344 4.18102 25.0277 4.09158 24.9003 4.04715C24.1166 3.77402 17.1977 1.4652 15.3807 4.41215C15.3179 4.51402 15.2899 4.63358 15.3009 4.75265C15.3087 4.8394 15.5334 6.91065 18.6768 9.98241C21.7979 13.0325 26.0184 13.789 26.1965 13.8197C26.228 13.8251 26.2593 13.8278 26.2905 13.8278C26.4858 13.8278 26.6698 13.7235 26.7692 13.5498C28.57 10.3985 25.3386 4.54658 25.2004 4.29902Z" fill="#F0CDE4"/>
<path d="M12.3811 3.43076C12.2544 3.4127 12.1216 3.43882 12.0107 3.50651C11.4059 3.87858 6.14661 7.22365 7.67068 10.1456C7.74587 10.2895 7.88024 10.3929 8.03837 10.4287C8.38205 10.5062 10.56 10.9798 12.5246 10.9798C13.4599 10.9798 14.3473 10.8723 14.9644 10.5639C16.776 9.65796 19.0317 8.04115 19.1268 7.97277C19.2596 7.8774 19.3435 7.7279 19.3553 7.56465C19.5708 4.59014 13.1176 3.5407 12.3811 3.43076Z" fill="#EAC5DB"/>
<path d="M11.3534 18.1162C7.52342 16.4366 6.35673 16.8849 6.03211 17.155C5.99704 17.1844 5.96554 17.218 5.93886 17.2552C4.57148 19.1449 6.63142 24.4344 7.05811 25.4756C7.12892 25.6483 7.28248 25.7735 7.46592 25.8083C8.33811 25.9737 10.2039 26.2824 11.9556 26.2824C13.7335 26.2824 15.3942 25.9643 15.7779 24.8555C15.8007 24.7895 15.811 24.72 15.8078 24.6502C15.7993 24.4595 15.5501 19.9568 11.3534 18.1162Z" fill="#EAC5DB"/>
<path d="M27.6047 15.6215C27.3914 15.0126 25.4311 9.6655 22.4119 9.34194C22.1997 9.31906 21.9871 9.42407 21.8772 9.61132C21.7692 9.79557 19.2402 14.1563 19.9742 17.1661C20.6676 20.0091 21.2339 21.2975 21.2578 21.3509C21.3321 21.5182 21.4844 21.6375 21.6645 21.6698C21.8577 21.7043 22.0462 21.7207 22.2308 21.7207C25.6045 21.7207 27.5222 16.2286 27.6062 15.9824C27.6465 15.8653 27.6459 15.7381 27.6047 15.6215Z" fill="#EAC5DB"/>
<path d="M13.9928 10.2716C13.5944 9.30434 12.9393 8.71221 12.0455 8.51158C9.27978 7.88852 5.27896 11.4413 4.83203 11.8478C4.70003 11.968 4.63434 12.1445 4.65552 12.3214C4.73878 13.017 5.54959 19.1512 8.35034 20.3702C8.67947 20.5135 9.01791 20.5848 9.36484 20.5848C10.0294 20.5848 10.7247 20.3222 11.4423 19.7983C11.5442 19.724 11.6173 19.6167 11.65 19.495L14.0157 10.624C14.0467 10.5071 14.0389 10.3834 13.9928 10.2716Z" fill="#E2C1D3"/>
<path d="M22.9606 17.8156C22.7128 16.8615 21.9607 16.205 20.7259 15.8639C20.6097 15.8318 20.4861 15.8386 20.3741 15.8833L11.5034 19.4315C11.3582 19.4897 11.2443 19.6071 11.1904 19.754C10.7397 20.9842 10.831 22.0526 11.462 22.9297C13.0174 25.0917 17.4724 25.2291 18.5774 25.2291C18.711 25.2291 18.7956 25.2272 18.8203 25.2264C18.9598 25.2226 19.0929 25.1658 19.1924 25.0677C19.653 24.6139 23.6724 20.5519 22.9606 17.8156Z" fill="#E2C1D3"/>
<path d="M22.291 8.55139C22.2423 8.38652 22.12 8.25395 21.9597 8.19258C21.446 7.99539 16.8732 6.31126 14.6611 7.88283C13.8694 8.44558 13.4861 9.32564 13.5224 10.4988C13.5272 10.6583 13.6011 10.8077 13.7244 10.9088L20.2297 16.2312C20.3291 16.3125 20.4527 16.3559 20.5791 16.3559C20.6136 16.3559 20.648 16.3527 20.6823 16.3462C21.3888 16.2115 21.9395 15.8281 22.3185 15.2067C23.6099 13.0893 22.3455 8.73564 22.291 8.55139Z" fill="#E2C1D3"/>
<path d="M20.5765 15.8025C20.5765 18.6492 18.3477 20.9718 15.5396 21.1207C16.7478 20.4918 17.9616 19.1567 18.0995 17.612C18.2043 16.481 17.7298 15.2342 16.2403 14.0701C15.9589 13.8495 15.7493 13.6178 15.6003 13.3805C14.8335 12.2055 15.5451 10.9255 16.5548 10.6441C18.8663 11.2234 20.5765 13.3143 20.5765 15.8025Z" fill="#D193B4"/>
<path d="M15.6004 13.3805C14.6516 14.7819 12.4613 13.5626 11.9869 17.1486C11.1042 16.5362 10.4477 15.6149 10.1277 14.3846C10.7456 12.1392 12.8089 10.4842 15.2584 10.4842C15.7053 10.4842 16.1411 10.5393 16.5548 10.6442C15.5453 10.9255 14.8336 12.2055 15.6004 13.3805Z" fill="#E0ACC8"/>
<path d="M18.0998 17.612C17.9618 19.1567 16.7481 20.4918 15.54 21.1207C15.5345 21.1207 15.5345 21.1207 15.5345 21.1207C15.4406 21.1262 15.3524 21.1262 15.2586 21.1262C12.3181 21.1262 9.93481 18.7429 9.93481 15.8024C9.93481 15.3114 10.001 14.837 10.1279 14.3846C10.4479 15.6148 11.1044 16.5362 11.9871 17.1485C13.5318 18.2298 15.7661 18.3678 18.0998 17.612Z" fill="#D8A9C2"/>
<path d="M18.0998 17.612C15.7661 18.3678 13.5318 18.2299 11.9871 17.1485C12.4615 13.5626 14.6517 14.7818 15.6006 13.3805C15.7496 13.6178 15.9593 13.8495 16.2406 14.0702C17.7301 15.2342 18.2046 16.481 18.0998 17.612Z" fill="#CA91AF"/>
</g>
<defs>
<clipPath id="clip0">
<rect width="32" height="32" fill="white"/>
</clipPath>
</defs>
</svg>
