<svg width="101" height="101" viewBox="0 0 101 101" fill="none" xmlns="http://www.w3.org/2000/svg">
<g clip-path="url(#clip0)">
<path d="M69.1775 54.4867C72.9197 51.406 71.9706 47.1995 72.1109 46.3653H72.3959C76.445 46.3653 79.7393 43.071 79.7393 39.0217C79.7393 37.2284 78.8581 35.6378 77.5071 34.6574V30.4919C77.5071 19.2316 69.8938 9.71711 59.5447 6.82243C58.4078 2.81695 54.7479 0 50.5 0C46.2521 0 42.5922 2.81695 41.4556 6.82243C31.1064 9.71691 23.4932 19.2318 23.4932 30.4919V34.6576C22.1419 35.638 21.2609 37.2286 21.2609 39.0221C21.2609 43.0712 24.5551 46.3655 28.6043 46.3655H28.8894V48.2644C28.8894 50.7292 30.0018 52.9879 31.8227 54.4869C23.1144 58.8822 17.4509 67.9012 17.4509 77.8229V97.6796C17.4509 99.5104 18.9405 101 20.7715 101H28.8038C29.621 101 30.2833 100.338 30.2833 99.5205C30.2833 98.7032 29.621 98.041 28.8038 98.041H20.7715C20.5721 98.041 20.4099 97.8789 20.4099 97.6796V77.8229C20.4099 68.2472 26.3594 59.6223 35.2632 56.1974L37.8977 57.0658L42.321 63.875C42.6045 64.3114 43.0789 64.5487 43.563 64.5487C43.8391 64.5487 44.1187 64.4713 44.3676 64.3096C45.0529 63.8646 45.2474 62.9482 44.8022 62.263L42.3877 58.5459L47.9758 60.3879C49.5754 60.915 51.3672 60.934 53.0244 60.3879L58.6126 58.5459L50.5 71.0342L48.0297 67.2307C47.5842 66.5454 46.6681 66.3507 45.9828 66.7961C45.2975 67.2411 45.103 68.1574 45.5481 68.8427L48.7568 73.7825C47.0396 76.7397 41.4731 87.1267 41.1098 98.0412H34.7192C33.9019 98.0412 33.2397 98.7034 33.2397 99.5207C33.2397 100.338 33.9019 101 34.7192 101H80.2287C82.0596 101 83.5493 99.5106 83.5493 97.6798V77.8231C83.5493 67.9012 77.8858 58.8822 69.1775 54.4867ZM72.3959 43.4063H72.1109V36.5906H74.3492C75.6898 36.5906 76.7803 37.6813 76.7803 39.0219C76.7801 41.4394 74.8132 43.4063 72.3959 43.4063ZM50.5 2.95898C52.838 2.95898 54.9162 4.20353 56.0479 6.11464C55.0277 5.98484 53.9879 5.91797 52.9329 5.91797H48.0673C47.0122 5.91797 45.9726 5.98484 44.9521 6.11464C46.0836 4.20353 48.1618 2.95898 50.5 2.95898ZM26.4522 30.4919C26.4522 18.5733 36.1487 8.87695 48.0671 8.87695H52.9327C64.8513 8.87695 74.5477 18.5733 74.5477 30.4919V33.6366C74.2762 33.6267 74.5351 33.6342 72.1107 33.6316V28.7548C72.1107 28.3571 71.9505 27.9762 71.6664 27.6979C71.3824 27.4197 70.9955 27.2668 70.6006 27.2757C61.484 27.4621 55.6317 25.7803 53.2035 22.2693C52.5013 21.2542 51.3984 20.6235 50.1771 20.5395C48.9791 20.4572 47.8261 20.9178 47.0135 21.8042C43.4458 25.6936 38.0159 27.4844 30.4093 27.2757C30.0106 27.2611 29.6234 27.4158 29.337 27.6943C29.0505 27.9729 28.8892 28.3554 28.8892 28.7546V33.6314C26.4646 33.634 26.7228 33.6265 26.4522 33.6364V30.4919ZM28.6041 43.4063C26.1866 43.4063 24.2197 41.4394 24.2197 39.0217C24.2197 37.6811 25.3102 36.5906 26.6508 36.5906H28.8892V43.4063H28.6041ZM52.0981 57.5777C51.0676 57.917 49.9327 57.9174 48.902 57.5777C46.5216 56.793 39.1263 54.3552 35.3546 53.1118C33.2572 52.4206 31.8484 50.4724 31.8484 48.2642C31.8484 46.0702 31.8484 32.2894 31.8484 30.2505C39.5804 30.2027 45.2654 28.0873 49.1939 23.8048C49.4695 23.5048 49.8029 23.4809 49.9743 23.4918C50.2925 23.5137 50.5825 23.6817 50.7699 23.9526C53.6884 28.1727 59.7086 30.2379 69.1519 30.2491V48.2642C69.1519 50.4724 67.7428 52.4206 65.6457 53.1118L52.0981 57.5777ZM80.5903 97.6796C80.5903 97.8789 80.4282 98.041 80.2287 98.041H44.0707C44.5049 86.369 51.5236 74.9071 51.7475 74.5453L63.1023 57.066L65.737 56.1974C74.6408 59.6225 80.5903 68.2474 80.5903 77.8229V97.6796Z" fill="black"/>
<path d="M54.1013 47.8349C51.6777 48.8522 49.3217 48.8518 46.8985 47.8349C46.1452 47.5195 45.278 47.8732 44.9618 48.6267C44.6455 49.3803 45 50.2475 45.7536 50.5635C47.3283 51.2243 48.9142 51.5546 50.5002 51.5546C52.0858 51.5546 53.6716 51.2241 55.2466 50.5635C55.9999 50.2473 56.3544 49.3803 56.0384 48.6267C55.722 47.8736 54.855 47.5191 54.1013 47.8349Z" fill="black"/>
<path d="M96.0218 0C95.2045 0 94.5423 0.662221 94.5423 1.47949V35.0111C94.5423 38.3305 93.2502 41.4516 90.9041 43.7999L86.0277 48.68C85.6148 49.0929 84.9252 49.1061 84.5021 48.6637C84.1006 48.2439 84.1052 47.5911 84.5125 47.1775L88.8476 42.7737C89.7071 41.9004 90.2275 40.7462 90.3129 39.5234L91.3444 24.7343C91.415 23.7212 90.7487 22.8187 89.7602 22.5879C88.7711 22.3569 87.7743 22.8716 87.3892 23.8111L84.1553 31.7041C83.9505 32.2044 83.204 32.0545 83.204 31.5165V24.5943C83.204 20.9482 84.4738 17.3846 86.7795 14.5604C87.4908 13.6891 87.8828 12.5897 87.8828 11.4647V1.47949C87.8828 0.662221 87.2206 0 86.4033 0C85.586 0 84.9238 0.662221 84.9238 1.47949V11.4647C84.9238 11.9097 84.769 12.3445 84.4875 12.6891C81.7518 16.0403 80.2451 20.2683 80.2451 24.5945V31.5167C80.2451 33.4207 81.7942 34.9701 83.6982 34.9701C85.1057 34.9701 86.3599 34.1283 86.8935 32.8262L88.0025 30.1189L87.361 39.3176C87.3245 39.837 87.1036 40.3272 86.7386 40.6981L82.4037 45.1018C80.8668 46.6632 80.8493 49.1262 82.3641 50.7093C83.9252 52.3413 86.5232 52.3709 88.1211 50.7714L92.9975 45.8913C95.902 42.9846 97.5015 39.1205 97.5015 35.0113V1.47949C97.5013 0.662221 96.839 0 96.0218 0V0Z" fill="black"/>
<path d="M18.5962 45.1016L14.2615 40.6983C13.8962 40.3272 13.6752 39.837 13.6389 39.3176L12.9972 30.1185L14.1064 32.826C14.6401 34.1285 15.8943 34.9701 17.3018 34.9701C19.2058 34.9701 20.7549 33.4207 20.7549 31.5167V24.5945C20.7549 20.2683 19.2482 16.0405 16.5125 12.6891C16.231 12.3445 16.0761 11.9097 16.0761 11.4647V1.47949C16.0761 0.662221 15.4139 0 14.5967 0C13.7794 0 13.1172 0.662221 13.1172 1.47949V11.4647C13.1172 12.5897 13.5089 13.6891 14.2205 14.5604C16.5261 17.3846 17.7959 20.9482 17.7959 24.5943V31.5165C17.7959 32.0539 17.0497 32.205 16.8447 31.7039L13.6107 23.8111C13.2257 22.8714 12.2273 22.3567 11.2402 22.5879C10.2513 22.8183 9.58473 23.7208 9.65535 24.7343L10.687 39.5235C10.7725 40.746 11.2927 41.9004 12.1525 42.7739L16.4874 47.1773C16.8946 47.5913 16.8993 48.2439 16.4979 48.6635C16.0838 49.0963 15.3956 49.104 14.9722 48.68L10.0958 43.7999C7.74956 41.4518 6.45767 38.3305 6.45767 35.0111V1.47949C6.45767 0.662221 5.79545 0 4.97818 0C4.16091 0 3.49869 0.662221 3.49869 1.47949V35.0111C3.49869 39.1203 5.09812 42.9844 8.00266 45.8911L12.8791 50.7712C14.4751 52.3691 17.0729 52.3427 18.6361 50.7091C20.1507 49.1262 20.1331 46.6632 18.5962 45.1016Z" fill="black"/>
<path d="M45.6147 39.4588C45.3164 38.6978 44.4581 38.323 43.6975 38.6208C42.8662 38.9465 42.2768 38.9465 41.4447 38.6208C40.6842 38.3232 39.8254 38.698 39.5275 39.4588C39.2294 40.2195 39.6048 41.078 40.3655 41.376C41.1281 41.6749 41.8495 41.824 42.5711 41.824C43.2927 41.824 44.0141 41.6747 44.7767 41.376C45.5376 41.078 45.9128 40.2197 45.6147 39.4588Z" fill="black"/>
<path d="M59.5553 38.6208C58.7238 38.9463 58.134 38.9463 57.3025 38.6208C56.5416 38.3231 55.6831 38.6979 55.3853 39.4588C55.0872 40.2195 55.4626 41.078 56.2233 41.376C56.9859 41.6749 57.7073 41.824 58.4289 41.824C59.1505 41.824 59.8717 41.6747 60.6345 41.376C61.3952 41.078 61.7705 40.2196 61.4725 39.4588C61.1742 38.6979 60.3157 38.3229 59.5553 38.6208Z" fill="black"/>
</g>
<defs>
<clipPath id="clip0">
<rect width="101" height="101" fill="white"/>
</clipPath>
</defs>
</svg>
