<svg width="99" height="99" viewBox="0 0 99 99" fill="none" xmlns="http://www.w3.org/2000/svg">
<g clip-path="url(#clip0)">
<path d="M55.0439 80.3458C54.7668 76.3089 52.3417 72.6959 48.7152 70.9169C46.0771 69.6228 43.061 69.4266 40.3184 70.2822L43.4833 63.8304C43.4833 63.8302 43.4835 63.83 43.4835 63.8299L45.5938 59.528L47.2598 60.3452C47.7957 60.6081 48.4432 60.3867 48.7061 59.8509C48.9689 59.315 48.7475 58.6675 48.2117 58.4047L46.5457 57.5874L47.5502 55.5398C55.1481 58.6461 63.9891 55.3652 67.657 47.888L74.9404 33.0404L75.2882 33.2111C75.8242 33.4739 76.4717 33.2525 76.7345 32.7167C76.9974 32.1808 76.776 31.5333 76.2402 31.2705L74.9221 30.6239C74.3621 30.3492 73.7922 30.1061 73.2152 29.8906L74.2443 27.7927L74.5919 27.9632C75.1278 28.2261 75.7753 28.0047 76.0381 27.4689C76.301 26.933 76.0796 26.2855 75.5438 26.0227L74.2256 25.376L74.2255 25.376C72.9742 24.7621 71.6635 24.3321 70.33 24.0821C70.4406 20.7954 68.6279 17.7239 65.6205 16.2486C62.6104 14.772 59.0764 15.2179 56.5453 17.3164C55.529 16.4137 54.3872 15.6442 53.1359 15.0304L53.1358 15.0304L51.8173 14.3836C51.2814 14.1207 50.6339 14.3421 50.3711 14.8779C50.1082 15.4138 50.3296 16.0613 50.8654 16.3242L51.2131 16.4947L50.1841 18.5922C49.6624 18.269 49.1215 17.9671 48.5592 17.6912L47.2411 17.0447C46.7052 16.7818 46.0577 17.0032 45.7949 17.539C45.532 18.0749 45.7534 18.7224 46.2892 18.9852L46.637 19.1558L39.3537 34.0033C35.6857 41.4805 38.5028 50.4803 45.6096 54.5873L44.131 57.6014C44.1304 57.6026 44.1297 57.6037 44.1291 57.605C44.1284 57.6063 44.128 57.6076 44.1274 57.6089L42.9042 60.1024C41.902 57.4099 39.9009 55.1449 37.2627 53.8507C33.6363 52.0718 29.2949 52.3655 25.9327 54.6173C25.6111 54.8326 25.4293 55.2033 25.4558 55.5894C25.7331 59.6264 28.1581 63.2394 31.7845 65.0183C34.4225 66.3124 37.4388 66.5085 40.1813 65.653L37.0164 72.1048C37.0164 72.105 37.0162 72.1052 37.0162 72.1054L34.906 76.407L33.2399 75.5897C32.704 75.3268 32.0565 75.5482 31.7936 76.084C31.5307 76.6199 31.7522 77.2674 32.288 77.5303L33.9541 78.3476L32.6291 81.0485C32.3662 81.5845 32.5877 82.232 33.1234 82.4948C33.6594 82.7577 34.3069 82.5363 34.5697 82.0005L36.3695 78.3315C36.3699 78.3308 36.3704 78.3299 36.3708 78.3291C36.3712 78.3284 36.3715 78.3274 36.3719 78.3266L37.5955 75.8322C38.5977 78.5247 40.5991 80.7898 43.237 82.0839C46.8634 83.8628 51.2048 83.569 54.5671 81.3172C54.8886 81.1026 55.0704 80.7319 55.0439 80.3458ZM32.8098 59.7983L40.1239 63.3862C37.7525 64.306 35.0626 64.219 32.7366 63.078C29.9921 61.7317 28.0974 59.0871 27.6784 56.0769C30.3154 54.5658 33.5664 54.4454 36.3109 55.7917C38.6373 56.9329 40.3525 59.0069 41.0765 61.4456L33.7619 57.8575C33.226 57.5946 32.5785 57.816 32.3157 58.3518C32.0528 58.8876 32.2739 59.5354 32.8098 59.7983ZM72.2838 26.8808L71.1235 29.2461C67.9866 28.4775 64.7104 28.5361 61.608 29.4134C61.6396 28.7543 61.6294 28.0932 61.5751 27.4349C64.9135 25.7139 68.8047 25.517 72.2838 26.8808ZM64.6685 18.1893C66.8508 19.2598 68.1868 21.4604 68.1734 23.8364C65.8051 23.7374 63.4244 24.1948 61.2242 25.2029C60.9461 24.0108 60.5274 22.8506 59.9703 21.7569C59.4389 20.7137 58.7968 19.7498 58.0594 18.8727C59.9297 17.4079 62.4843 17.1178 64.6685 18.1893ZM53.1345 17.4862C56.5725 19.5336 58.8155 22.9796 59.3496 26.8298C59.3495 26.9193 59.3604 27.0092 59.383 27.0978C59.5022 28.1121 59.5047 29.1519 59.3779 30.2007C59.1161 30.3119 58.8558 30.4276 58.598 30.5512C57.7017 26.4015 55.407 22.586 51.9738 19.8523L53.1345 17.4862ZM47.5152 53.1569C40.782 49.8539 37.9912 41.6889 41.2942 34.9556L48.5622 20.1394C56.0531 24.4359 59.0276 33.9018 55.1713 41.763L54.2958 43.5478C54.0329 44.0837 54.2543 44.7312 54.7901 44.994C55.326 45.2569 55.9735 45.0355 56.2363 44.4997L57.1119 42.7149C58.6767 39.525 59.2465 36.1011 58.9427 32.7976C63.3071 30.4872 68.4386 30.2451 72.9842 32.1198L65.7163 46.9358C63.0289 52.4141 57.1232 55.2822 51.3885 54.3822L54.1449 48.7633C54.4077 48.2274 54.1863 47.5799 53.6505 47.3171C53.1146 47.0542 52.4671 47.2756 52.2043 47.8114L49.2372 53.8599C48.6557 53.6674 48.0803 53.4341 47.5152 53.1569ZM44.189 80.1438C41.8626 79.0026 40.1474 76.9286 39.4233 74.4898L46.7377 78.0778C47.2737 78.3407 47.9211 78.1193 48.184 77.5835C48.4469 77.0476 48.2255 76.4001 47.6897 76.1373L40.3756 72.5494C42.7471 71.6294 45.4369 71.7166 47.7632 72.8577C50.5076 74.204 52.4023 76.8486 52.8214 79.8587C50.1846 81.3696 46.9335 81.4901 44.189 80.1438Z" fill="black"/>
</g>
<defs>
<clipPath id="clip0">
<rect width="73.7881" height="73.7881" fill="white" transform="translate(32.497) rotate(26.13)"/>
</clipPath>
</defs>
</svg>
